<svg width="222" height="222" viewBox="0 0 222 222" fill="none" xmlns="http://www.w3.org/2000/svg">
<circle cx="111" cy="111" r="69.5" stroke="#7df9ff" stroke-dasharray="5 5"/>
<path d="M111.763 99.7657C111.295 100.018 111.004 100.498 111.004 101.02V109.151H94.9491C94.1384 109.151 93.4805 109.794 93.4805 110.586C93.4805 111.378 94.1384 112.02 94.9491 112.02H111.004V120.151C111.004 120.675 111.295 121.155 111.763 121.406C112.231 121.66 112.803 121.643 113.256 121.366L128.795 111.8C129.222 111.536 129.48 111.079 129.48 110.586C129.48 110.092 129.222 109.635 128.795 109.371L113.256 99.8059C113.017 99.6605 112.744 99.5859 112.472 99.5859C112.229 99.5859 111.985 99.6471 111.763 99.7657Z" fill="#7df9ff"/>
<path d="M116.274 12.5197C115.622 12.7154 114.936 12.8784 114.218 13.0088C113.5 13.1522 112.75 13.224 111.966 13.224C110.831 13.224 109.838 13.0544 108.99 12.7154C108.154 12.3632 107.456 11.8872 106.895 11.2873C106.346 10.6874 105.935 9.9897 105.661 9.19418C105.387 8.39865 105.25 7.55749 105.25 6.67067C105.25 5.73169 105.393 4.85792 105.68 4.04935C105.981 3.24078 106.418 2.53655 106.992 1.93665C107.567 1.33674 108.278 0.867252 109.127 0.528176C109.975 0.176059 110.961 0 112.084 0C112.332 0 112.619 0.0130412 112.945 0.0391237C113.285 0.0652069 113.637 0.110852 114.003 0.176059C114.368 0.241266 114.74 0.332555 115.119 0.449928C115.511 0.554259 115.883 0.691194 116.235 0.860731L116.274 1.03679L115.942 3.16906H115.06L114.982 3.11037C114.917 2.66696 114.649 2.30833 114.179 2.03446C113.722 1.74755 112.991 1.60409 111.986 1.60409C111.359 1.60409 110.804 1.66278 110.321 1.78015C109.851 1.88448 109.414 2.09314 109.009 2.40614C108.722 2.62784 108.487 2.89519 108.304 3.20818C108.122 3.50813 107.978 3.84069 107.874 4.20585C107.769 4.57101 107.697 4.95573 107.658 5.36001C107.619 5.76429 107.599 6.16858 107.599 6.57286C107.599 7.36838 107.704 8.07914 107.913 8.70513C108.135 9.33111 108.435 9.85929 108.814 10.2897C109.192 10.72 109.636 11.0526 110.145 11.2873C110.667 11.509 111.229 11.6199 111.829 11.6199C112.012 11.6199 112.208 11.6134 112.417 11.6003C112.639 11.5742 112.854 11.5416 113.063 11.5025C113.272 11.4634 113.455 11.4177 113.611 11.3656C113.781 11.3134 113.898 11.2612 113.964 11.2091C114.042 11.17 114.088 11.1178 114.101 11.0526C114.114 10.9874 114.12 10.9026 114.12 10.7983C114.12 10.707 114.12 10.557 114.12 10.3483C114.12 10.1397 114.107 9.97666 114.081 9.85929C114.055 9.52021 113.983 9.26591 113.866 9.09637C113.761 8.91379 113.67 8.79642 113.592 8.74425C113.474 8.63992 113.298 8.58123 113.063 8.56819C112.828 8.55515 112.606 8.54863 112.397 8.54863L112.299 8.47038L112.24 7.64878L112.28 7.57053C112.371 7.57053 112.515 7.57705 112.71 7.59009C112.919 7.60313 113.128 7.61617 113.337 7.62921C113.559 7.64225 113.768 7.6553 113.964 7.66834C114.173 7.68138 114.323 7.6879 114.414 7.6879H115.785C115.876 7.6879 116 7.68138 116.157 7.66834C116.314 7.6553 116.477 7.64225 116.646 7.62921C116.816 7.61617 116.979 7.60313 117.136 7.59009C117.293 7.57705 117.417 7.57053 117.508 7.57053L117.547 7.64878L117.508 8.50951L117.41 8.58775C117.032 8.58775 116.764 8.69861 116.607 8.92031C116.464 9.12897 116.379 9.44197 116.353 9.85929C116.327 10.1201 116.307 10.4005 116.294 10.7005C116.294 10.9874 116.294 11.2026 116.294 11.346C116.294 11.5416 116.294 11.7568 116.294 11.9916C116.307 12.2133 116.327 12.3567 116.353 12.4219L116.274 12.5197Z" fill="#7df9ff"/>
<path d="M126.755 9.06445L126.248 9.36075C125.548 9.28047 124.853 9.20742 124.164 9.14159C123.488 9.07724 122.794 9.00418 122.081 8.92242L120.485 8.73957C120.462 8.82877 120.445 8.91873 120.435 9.00942C120.426 9.08716 120.417 9.1649 120.408 9.24264C120.369 9.5795 120.389 9.92306 120.467 10.2733C120.545 10.6235 120.691 10.9488 120.907 11.2492C121.136 11.538 121.436 11.789 121.806 12.002C122.177 12.2021 122.641 12.3341 123.199 12.398C123.601 12.4441 124.029 12.4406 124.481 12.3875C124.949 12.3229 125.387 12.2222 125.797 12.0854L126.112 12.2594L126.032 12.959L125.813 13.1505C125.473 13.361 124.986 13.5414 124.351 13.6918C123.729 13.8437 123.068 13.8795 122.368 13.7992C121.681 13.7204 121.064 13.5382 120.519 13.2525C119.988 12.9554 119.539 12.5757 119.171 12.1136C118.817 11.6529 118.556 11.1241 118.388 10.5273C118.233 9.9319 118.195 9.2844 118.276 8.58476C118.358 7.87216 118.549 7.23772 118.849 6.68144C119.15 6.12516 119.525 5.66276 119.974 5.29424C120.437 4.92721 120.954 4.65831 121.526 4.48753C122.11 4.31824 122.72 4.27001 123.356 4.34286C123.693 4.38151 124.064 4.46997 124.468 4.60823C124.886 4.74799 125.274 4.96973 125.634 5.27345C125.994 5.56422 126.304 5.96066 126.561 6.46277C126.821 6.95192 126.965 7.57892 126.996 8.34377L126.755 9.06445ZM123.208 5.80268C122.572 5.72984 122.037 5.86546 121.604 6.20956C121.184 6.54218 120.894 6.95519 120.732 7.4486L121.705 7.56009C122.159 7.61213 122.607 7.65694 123.049 7.69452C123.493 7.71916 123.942 7.75749 124.396 7.80952C124.565 7.82885 124.693 7.79762 124.782 7.71585C124.871 7.62111 124.922 7.52192 124.934 7.41827C124.979 7.02958 124.828 6.67764 124.484 6.36244C124.139 6.04725 123.713 5.86066 123.208 5.80268Z" fill="#7df9ff"/>
<path d="M138.192 8.61216L136.094 8.12478C135.922 8.86152 135.756 9.54598 135.596 10.1781C135.451 10.8006 135.323 11.3468 135.214 11.8168C135.108 12.2741 135.014 12.6473 134.933 12.9365C134.865 13.2287 134.824 13.4065 134.809 13.47C134.694 13.9654 134.712 14.3178 134.865 14.5273C135.017 14.7367 135.22 14.871 135.474 14.93C135.665 14.9743 135.886 15.0055 136.136 15.0235C136.387 15.0415 136.602 15.038 136.782 15.0129L136.848 15.249L136.511 15.8335C136.123 15.9443 135.733 16.0077 135.341 16.0236C134.958 16.0552 134.614 16.0356 134.309 15.9647C133.533 15.7845 133.021 15.4782 132.774 15.0457C132.526 14.6133 132.467 14.1176 132.597 13.5587C132.624 13.4443 132.682 13.2235 132.771 12.8962C132.864 12.5562 132.976 12.1336 133.107 11.6285C133.241 11.1106 133.392 10.5166 133.562 9.84629C133.731 9.17602 133.908 8.4471 134.091 7.65955L133.099 7.42915L133.045 7.31616L133.24 6.47779L133.334 6.4193L134.388 6.38295C134.483 5.97647 134.566 5.56069 134.638 5.1356C134.726 4.70076 134.805 4.27715 134.874 3.86476L135.034 3.78145L135.305 3.82443C135.394 3.84511 135.517 3.86682 135.672 3.88956C135.84 3.91526 136.015 3.94243 136.196 3.97108C136.38 3.98703 136.551 4.00003 136.71 4.01007C136.881 4.02306 137.008 4.02572 137.09 4.01804L137.244 4.13413C137.106 4.43692 136.956 4.85064 136.794 5.37528C136.635 5.88722 136.5 6.37819 136.391 6.84818L138.515 7.22124L138.593 7.31961L138.309 8.53904L138.192 8.61216Z" fill="#7df9ff"/>
<path d="M156.427 13.1256C156.277 13.4299 156.232 13.7276 156.292 14.0188C156.353 14.3101 156.483 14.6066 156.684 14.9086C156.89 15.1988 157.146 15.5062 157.452 15.8308C157.758 16.1554 158.084 16.4973 158.431 16.8566C158.772 17.2276 159.09 17.6017 159.384 17.9788C159.684 18.3442 159.915 18.7335 160.075 19.1465C160.253 19.5536 160.34 19.9817 160.338 20.4308C160.352 20.874 160.236 21.3472 159.988 21.8504C159.735 22.3654 159.405 22.7846 158.998 23.1081C158.597 23.4199 158.135 23.6359 157.61 23.756C157.103 23.8702 156.539 23.8769 155.92 23.7761C155.312 23.681 154.68 23.4723 154.024 23.1501C153.321 22.8048 152.661 22.3718 152.045 21.851C151.428 21.3302 150.92 20.7824 150.519 20.2077L150.561 19.945L152.123 17.7911L152.914 18.1795L152.95 18.328C152.622 19.1701 152.61 19.8759 152.911 20.4454C153.225 21.0207 153.791 21.5098 154.611 21.9126C155.42 22.3096 156.075 22.4569 156.576 22.3544C157.083 22.2402 157.475 21.9022 157.751 21.3404C157.93 20.9776 158.001 20.6418 157.964 20.3329C157.927 20.0241 157.808 19.7187 157.607 19.4167C157.418 19.1205 157.162 18.8131 156.839 18.4945C156.516 18.1759 156.163 17.8137 155.781 17.408C155.434 17.0487 155.122 16.6921 154.845 16.3382C154.574 15.9725 154.365 15.6006 154.216 15.2225C154.085 14.8385 154.03 14.4335 154.05 14.0076C154.071 13.5817 154.202 13.123 154.444 12.6314C154.951 11.6015 155.676 10.9697 156.621 10.7359C157.577 10.5079 158.746 10.7334 160.128 11.4124C160.761 11.7231 161.315 12.0897 161.791 12.5123C162.272 12.9232 162.652 13.3202 162.929 13.7033L162.904 13.9309L161.638 15.7941L160.794 15.3798L160.75 15.2489C160.921 14.7228 160.898 14.2389 160.679 13.7971C160.46 13.3553 160.034 12.979 159.401 12.6683C158.698 12.323 158.084 12.1959 157.559 12.2869C157.035 12.3779 156.657 12.6575 156.427 13.1256Z" fill="#7df9ff"/>
<path d="M171.065 23.7697L169.253 22.6064C168.844 23.2427 168.457 23.8316 168.094 24.3731C167.748 24.9107 167.444 25.3824 167.183 25.7884C166.929 26.1833 166.715 26.5035 166.542 26.7487C166.38 27.0011 166.281 27.1547 166.246 27.2095C165.97 27.6374 165.869 27.9755 165.942 28.2239C166.015 28.4723 166.161 28.667 166.381 28.808C166.546 28.9138 166.743 29.0172 166.973 29.1182C167.203 29.2193 167.407 29.2882 167.585 29.325L167.567 29.5695L167.053 30.0068C166.651 29.981 166.262 29.9097 165.887 29.793C165.516 29.6944 165.199 29.5604 164.935 29.3912C164.265 28.9611 163.886 28.5008 163.798 28.0103C163.71 27.5198 163.822 27.0332 164.132 26.5504C164.196 26.4517 164.325 26.2632 164.519 25.985C164.721 25.6959 164.968 25.3354 165.262 24.9036C165.562 24.4608 165.905 23.9522 166.29 23.3778C166.675 22.8034 167.086 22.1761 167.524 21.4959L166.667 20.9459L166.654 20.8213L167.12 20.0972L167.228 20.0737L168.233 20.3933C168.459 20.0422 168.677 19.6786 168.888 19.3024C169.117 18.9224 169.334 18.5497 169.538 18.1846L169.716 18.1599L169.958 18.2915C170.034 18.3408 170.142 18.4023 170.281 18.476C170.431 18.5566 170.586 18.6409 170.747 18.7286C170.915 18.8054 171.072 18.8751 171.218 18.9377C171.375 19.0075 171.493 19.0525 171.573 19.0729L171.679 19.2339C171.448 19.4729 171.167 19.8122 170.838 20.2519C170.516 20.6805 170.224 21.0978 169.963 21.5038L171.838 22.5684L171.878 22.6871L171.201 23.7403L171.065 23.7697Z" fill="#7df9ff"/>
<path d="M174.462 36.0911C174.566 36.025 174.694 35.9103 174.845 35.7469C175.005 35.5918 175.159 35.456 175.305 35.3394L175.327 35.2816C175.082 35.3339 174.82 35.3648 174.543 35.374C174.276 35.3915 174 35.3774 173.718 35.3316C173.435 35.2858 173.157 35.2024 172.885 35.0813C172.615 34.9786 172.359 34.8282 172.116 34.6301C171.753 34.3329 171.48 34.0173 171.298 33.6834C171.116 33.3494 171.008 33.0173 170.975 32.687C170.942 32.3566 170.974 32.0291 171.071 31.7042C171.178 31.3876 171.34 31.0981 171.554 30.8356C171.877 30.4418 172.244 30.1687 172.655 30.0163C173.067 29.8639 173.488 29.8123 173.92 29.8618C174.323 29.9048 174.739 30.0253 175.167 30.2234C175.603 30.4114 176.009 30.6163 176.384 30.8383C176.759 31.0602 177.086 31.2776 177.368 31.4904C177.657 31.6931 177.847 31.8316 177.938 31.9059L178.15 32.0793C178.396 31.758 178.575 31.4992 178.685 31.3028C178.803 31.0963 178.887 30.9119 178.935 30.7495C179.01 30.4732 178.974 30.2081 178.828 29.9539C178.7 29.698 178.495 29.4544 178.212 29.2233C178.04 29.0829 177.84 28.9453 177.613 28.8105C177.405 28.6739 177.186 28.5707 176.956 28.501C176.727 28.4314 176.492 28.4085 176.253 28.4324C176.033 28.4545 175.83 28.5582 175.645 28.7436L175.547 28.7395L175.062 28.3433L176.09 26.8083L176.21 26.7546C176.32 26.7436 176.49 26.7729 176.72 26.8426C176.95 26.9122 177.211 27.0158 177.503 27.1534C177.803 27.2808 178.111 27.44 178.427 27.6307C178.762 27.8196 179.076 28.0338 179.369 28.2732C179.763 28.5952 180.09 28.947 180.351 29.3286C180.621 29.7002 180.798 30.0809 180.883 30.4709C180.979 30.8691 180.978 31.2723 180.88 31.6807C180.79 32.079 180.588 32.4699 180.274 32.8536C179.935 33.2675 179.641 33.6167 179.391 33.9012C179.151 34.194 178.923 34.4625 178.706 34.7066C178.49 34.9508 178.277 35.1899 178.069 35.4239C177.879 35.6561 177.664 35.9186 177.424 36.2114C177.254 36.4601 177.143 36.6473 177.091 36.773C177.039 36.8988 177.023 37.0208 177.044 37.1392C177.059 37.286 177.139 37.4355 177.284 37.5878C177.448 37.7383 177.6 37.8713 177.742 37.9868L177.737 38.0846L177.346 38.6242L177.282 38.6724C177.126 38.5119 176.942 38.3357 176.728 38.144C176.513 37.9523 176.31 37.778 176.118 37.6212C175.835 37.39 175.552 37.1589 175.269 36.9277C174.978 36.7067 174.698 36.5031 174.429 36.3169L174.462 36.0911ZM175.801 34.4556C175.872 34.4299 175.952 34.3941 176.04 34.3482C176.139 34.3105 176.234 34.2453 176.327 34.1526L177.456 32.9273L177.32 32.8159C177.007 32.56 176.682 32.3284 176.345 32.1211C176.009 31.9138 175.674 31.7666 175.341 31.6796C175.007 31.5925 174.682 31.588 174.365 31.6661C174.049 31.7442 173.758 31.9447 173.493 32.2678C173.27 32.5404 173.158 32.8111 173.158 33.08C173.167 33.3571 173.288 33.5906 173.52 33.7805C173.692 33.9208 173.88 34.0409 174.085 34.1409C174.308 34.239 174.525 34.3147 174.734 34.3678C174.944 34.421 175.142 34.4567 175.329 34.475C175.525 34.4832 175.682 34.4767 175.801 34.4556Z" fill="#7df9ff"/>
<path d="M186.002 37.5845C186.271 37.5054 186.558 37.4264 186.864 37.3478C187.179 37.2785 187.493 37.2369 187.807 37.2229C188.121 37.209 188.425 37.241 188.72 37.319C189.023 37.4063 189.293 37.5715 189.53 37.8147C189.603 37.8895 189.68 37.9874 189.761 38.1085C189.861 38.2298 189.947 38.3555 190.019 38.4857C190.1 38.6252 190.172 38.7646 190.234 38.9038C190.297 39.043 190.332 39.1634 190.34 39.265L190.351 39.445L188.671 40.7491L188.084 40.1458C188.169 40.0087 188.208 39.8248 188.203 39.5942C188.215 39.3638 188.103 39.127 187.867 38.8838C187.657 38.6687 187.41 38.5269 187.125 38.4582C186.849 38.3805 186.568 38.3535 186.281 38.377C185.995 38.4006 185.721 38.4659 185.461 38.5728C185.211 38.6707 185.01 38.7924 184.861 38.9378L183.892 39.8785C183.536 40.2239 183.269 40.4829 183.091 40.6556C182.922 40.8377 182.777 40.997 182.655 41.1336C182.467 41.3522 182.322 41.5392 182.218 41.6945C182.133 41.8501 182.093 41.9971 182.101 42.1356C182.1 42.2093 182.121 42.2972 182.166 42.3993C182.229 42.5017 182.297 42.5995 182.37 42.6927C182.442 42.786 182.515 42.87 182.588 42.9449C182.67 43.029 182.733 43.0945 182.779 43.1413L182.777 43.2796L182.341 43.7575L182.257 43.784C182.203 43.7279 182.116 43.6298 181.998 43.4898C181.88 43.3498 181.753 43.2004 181.617 43.0417C181.471 42.892 181.34 42.7472 181.222 42.6072C181.094 42.4763 181.003 42.3827 180.949 42.3266L180.075 41.4288C180.011 41.3633 179.911 41.2605 179.775 41.1202C179.638 40.9983 179.497 40.8626 179.351 40.7129C179.197 40.5724 179.046 40.4365 178.9 40.3053C178.764 40.1835 178.663 40.0898 178.6 40.0244L178.642 39.9558L179.147 39.5203L179.244 39.5079C179.399 39.6669 179.549 39.8119 179.695 39.9431C179.85 40.0653 180.001 40.1274 180.149 40.1295C180.287 40.1407 180.422 40.1103 180.552 40.0384C180.691 39.9758 180.897 39.8312 181.168 39.6045C181.289 39.5048 181.443 39.364 181.631 39.1822C181.818 39.0004 182.08 38.746 182.417 38.4187L183.442 37.4235C183.639 37.2326 183.803 37.0736 183.934 36.9463C184.074 36.81 184.191 36.6872 184.285 36.5778C184.388 36.4778 184.477 36.3823 184.552 36.2911C184.637 36.2093 184.721 36.1183 184.805 36.0181C184.881 35.9085 184.943 35.7941 184.99 35.6748C185.038 35.5556 185.063 35.4684 185.063 35.413C185.094 35.2014 185.051 35.0163 184.933 34.8578C184.815 34.6994 184.683 34.5453 184.538 34.3957L184.539 34.285L185.017 33.8215L185.114 33.8367L185.359 34.0892C185.559 34.295 185.819 34.5615 186.137 34.8888C186.465 35.2071 186.761 35.4742 187.026 35.6901L187.574 36.1129L187.389 36.4561C187.156 36.5727 186.914 36.726 186.662 36.9161C186.419 37.1155 186.19 37.3198 185.975 37.5288L186.002 37.5845Z" fill="#7df9ff"/>
<path d="M196.929 49.0817L195.613 47.3777C195.014 47.8395 194.451 48.2644 193.926 48.6523C193.42 49.0425 192.975 49.3849 192.593 49.6796C192.221 49.9663 191.912 50.1961 191.666 50.3689C191.428 50.5521 191.283 50.6636 191.232 50.7034C190.829 51.014 190.62 51.2985 190.605 51.5569C190.59 51.8153 190.662 52.0478 190.822 52.2544C190.941 52.4093 191.092 52.5729 191.275 52.7453C191.457 52.9176 191.626 53.051 191.781 53.1454L191.683 53.3698L191.051 53.6091C190.681 53.4497 190.339 53.2521 190.025 53.0163C189.709 52.7988 189.455 52.5661 189.264 52.3183C188.777 51.6883 188.575 51.1275 188.658 50.636C188.74 50.1445 189.008 49.7236 189.463 49.3732C189.556 49.3015 189.741 49.1673 190.018 48.9706C190.305 48.7659 190.659 48.5094 191.081 48.2012C191.513 47.885 192.006 47.5211 192.562 47.1093C193.118 46.6976 193.717 46.2448 194.358 45.7511L193.736 44.9455L193.766 44.8238L194.448 44.2982L194.558 44.3124L195.397 44.9507C195.727 44.6959 196.055 44.4267 196.381 44.1433C196.724 43.8622 197.053 43.5839 197.368 43.3084L197.545 43.3452L197.728 43.5501C197.784 43.6224 197.865 43.7165 197.971 43.8325C198.085 43.9588 198.203 44.0902 198.325 44.2269C198.457 44.3555 198.581 44.4738 198.697 44.5818C198.822 44.7002 198.918 44.7824 198.987 44.8284L199.032 45.0156C198.734 45.1631 198.356 45.3885 197.898 45.692C197.45 45.9876 197.035 46.2826 196.652 46.5773L198.061 48.2097L198.058 48.3349L197.066 49.0994L196.929 49.0817Z" fill="#7df9ff"/>
<path d="M201.403 61.412L200.859 61.1918C200.495 60.5887 200.128 59.9946 199.76 59.4094C199.398 58.8354 199.032 58.2413 198.661 57.627L197.832 56.2534C197.747 56.2894 197.665 56.3309 197.587 56.378C197.52 56.4185 197.453 56.4589 197.386 56.4993C197.095 56.6744 196.835 56.8997 196.605 57.1753C196.375 57.4509 196.206 57.7656 196.1 58.1192C196.011 58.4772 195.995 58.8675 196.052 59.2901C196.12 59.706 196.299 60.154 196.589 60.6342C196.798 60.9805 197.062 61.3165 197.38 61.6423C197.717 61.9726 198.065 62.2581 198.423 62.4988L198.478 62.8543L197.874 63.218L197.589 63.1616C197.214 63.0215 196.774 62.7463 196.267 62.3359C195.767 61.9366 195.335 61.4355 194.971 60.8324C194.613 60.2405 194.381 59.6416 194.275 59.0357C194.186 58.4343 194.213 57.8471 194.355 57.2743C194.504 56.7125 194.763 56.183 195.134 55.6857C195.511 55.1995 196.002 54.7746 196.605 54.4109C197.22 54.0405 197.84 53.8043 198.464 53.7023C199.089 53.6002 199.684 53.6146 200.251 53.7453C200.824 53.8871 201.353 54.132 201.838 54.4798C202.329 54.8388 202.74 55.2919 203.07 55.8392C203.245 56.1295 203.402 56.477 203.539 56.8815C203.683 57.2972 203.745 57.7399 203.723 58.2096C203.713 58.6726 203.588 59.1594 203.347 59.6698C203.118 60.1736 202.709 60.671 202.121 61.1621L201.403 61.412ZM201.822 56.6136C201.492 56.0663 201.058 55.7262 200.52 55.5932C200.001 55.4646 199.496 55.487 199.006 55.6603L199.512 56.4979C199.748 56.8888 199.986 57.2707 200.226 57.6437C200.478 58.0099 200.721 58.3885 200.957 58.7794C201.045 58.9246 201.148 59.0071 201.267 59.027C201.397 59.0401 201.506 59.0197 201.596 58.9658C201.931 58.7638 202.119 58.4301 202.158 57.9648C202.197 57.4995 202.085 57.0491 201.822 56.6136Z" fill="#7df9ff"/>
<path d="M201.613 72.6179C201.696 72.58 201.859 72.5273 202.101 72.46C202.36 72.3991 202.584 72.3399 202.773 72.2823L202.836 72.232C202.149 72.1728 201.538 71.9354 201.004 71.5197C200.481 71.0986 200.084 70.5915 199.813 69.9983C199.515 69.3459 199.373 68.7223 199.388 68.1276C199.409 67.5447 199.542 67.0037 199.787 66.5046C200.033 66.0056 200.376 65.5624 200.816 65.1753C201.256 64.7881 201.749 64.4699 202.295 64.2207C203.091 63.8577 203.825 63.6735 204.497 63.668C205.186 63.6689 205.792 63.7866 206.316 64.0209C206.851 64.2499 207.302 64.5604 207.667 64.9527C208.051 65.3513 208.343 65.7701 208.543 66.2091C208.787 66.7429 208.904 67.3277 208.893 67.9634C208.882 68.5991 208.668 69.2131 208.25 69.8053L208.337 69.8084C208.671 69.6276 209.016 69.4559 209.372 69.2934C209.74 69.1254 210.096 68.9629 210.441 68.8058C210.809 68.6378 211.112 68.4997 211.349 68.3913C211.599 68.2776 211.804 68.1768 211.964 68.0891C212.131 68.0133 212.276 67.9396 212.402 67.8682C212.532 67.8086 212.666 67.7403 212.803 67.6635C212.917 67.5974 213.01 67.5044 213.085 67.3845C213.159 67.2646 213.206 67.1787 213.225 67.1268C213.28 66.9012 213.287 66.6972 213.247 66.5148C213.212 66.3444 213.146 66.1524 213.048 65.9388L213.087 65.8351L213.675 65.567L213.778 65.6056L214.242 66.6199C214.367 66.8928 214.497 67.1775 214.633 67.474C214.785 67.7771 214.934 68.0391 215.078 68.2601L215.452 68.8422L215.162 69.1034C215.104 69.1013 215.004 69.1183 214.862 69.1541C214.738 69.1964 214.602 69.2442 214.454 69.2973C214.312 69.3623 214.173 69.4187 214.036 69.4664C213.906 69.526 213.805 69.5721 213.734 69.6046C213.556 69.6858 213.381 69.7585 213.209 69.8224C213.055 69.8929 212.87 69.9769 212.657 70.0744C212.455 70.1665 212.197 70.277 211.883 70.406C211.586 70.5415 211.2 70.7175 210.725 70.9342L206.842 72.7058C206.343 72.9333 205.939 73.1175 205.63 73.2584C205.339 73.4057 205.092 73.5254 204.89 73.6175C204.694 73.7214 204.519 73.8086 204.364 73.8791C204.227 73.9559 204.054 74.0491 203.846 74.1584C203.643 74.2797 203.502 74.3798 203.424 74.4587C203.35 74.5495 203.303 74.6499 203.282 74.7601C203.23 74.8983 203.23 75.0559 203.282 75.2328C203.346 75.4043 203.411 75.5612 203.476 75.7036L203.437 75.8073L202.848 76.1192L202.76 76.1161C202.692 75.9036 202.61 75.676 202.513 75.4333C202.416 75.1906 202.319 74.9625 202.222 74.749C202.075 74.4287 201.929 74.1084 201.782 73.7881C201.624 73.4732 201.468 73.1788 201.314 72.905L201.613 72.6179ZM203.257 66.2767C202.901 66.4392 202.569 66.6406 202.263 66.8807C201.974 67.1273 201.733 67.4019 201.541 67.7044C201.362 68.0016 201.251 68.3245 201.209 68.6732C201.185 69.0283 201.26 69.3957 201.433 69.7753C201.618 70.1786 201.846 70.5047 202.117 70.7536C202.406 71.0089 202.695 71.1999 202.982 71.3268C203.287 71.4601 203.573 71.5373 203.841 71.5584C204.115 71.5913 204.331 71.5786 204.491 71.52L206.468 70.618C206.612 70.5238 206.764 70.3687 206.923 70.1525C207.1 69.9428 207.24 69.6851 207.345 69.3795C207.454 69.0857 207.51 68.7521 207.511 68.3787C207.525 67.9998 207.434 67.5969 207.239 67.1698C207.06 66.7783 206.816 66.4809 206.508 66.2774C206.211 66.0686 205.883 65.9315 205.523 65.8663C205.169 65.813 204.795 65.8261 204.4 65.9056C204.006 65.985 203.625 66.1088 203.257 66.2767Z" fill="#7df9ff"/>
<path d="M213.15 93.7887L211.514 93.8005L210.238 87.512L211.87 87.481L213.15 93.7887Z" fill="#7df9ff"/>
<path d="M209.349 119.659C209.171 119.002 209.028 118.313 208.918 117.592C208.795 116.871 208.744 116.119 208.767 115.337C208.799 114.203 208.997 113.217 209.361 112.379C209.737 111.555 210.233 110.871 210.85 110.328C211.465 109.798 212.175 109.407 212.979 109.156C213.783 108.905 214.629 108.792 215.516 108.817C216.456 108.844 217.326 109.012 218.127 109.322C218.927 109.645 219.619 110.102 220.203 110.693C220.787 111.283 221.237 112.007 221.552 112.864C221.88 113.722 222.028 114.711 221.996 115.832C221.989 116.08 221.967 116.366 221.932 116.691C221.896 117.03 221.84 117.38 221.765 117.743C221.689 118.107 221.587 118.475 221.459 118.85C221.343 119.238 221.196 119.606 221.016 119.953L220.839 119.987L218.715 119.594L218.74 118.714L218.801 118.637C219.246 118.585 219.613 118.328 219.9 117.866C220.2 117.418 220.365 116.692 220.393 115.689C220.411 115.063 220.368 114.507 220.265 114.021C220.174 113.549 219.977 113.106 219.676 112.693C219.462 112.4 219.201 112.158 218.893 111.967C218.599 111.775 218.27 111.623 217.907 111.508C217.545 111.393 217.162 111.31 216.759 111.26C216.355 111.209 215.951 111.178 215.547 111.166C214.751 111.144 214.037 111.228 213.404 111.418C212.772 111.622 212.234 111.907 211.793 112.273C211.352 112.638 211.006 113.072 210.757 113.574C210.52 114.089 210.393 114.646 210.376 115.246C210.371 115.429 210.372 115.624 210.379 115.833C210.398 116.056 210.425 116.272 210.458 116.481C210.491 116.691 210.532 116.875 210.579 117.033C210.627 117.204 210.676 117.323 210.726 117.389C210.763 117.469 210.814 117.516 210.879 117.531C210.944 117.545 211.028 117.554 211.133 117.557C211.224 117.56 211.374 117.564 211.583 117.57C211.792 117.576 211.955 117.568 212.073 117.545C212.413 117.529 212.67 117.464 212.843 117.352C213.028 117.253 213.149 117.165 213.203 117.088C213.311 116.974 213.374 116.799 213.394 116.565C213.414 116.331 213.427 116.109 213.433 115.901L213.514 115.805L214.338 115.77L214.415 115.811C214.412 115.903 214.402 116.046 214.383 116.241C214.364 116.449 214.345 116.657 214.326 116.866C214.307 117.087 214.288 117.295 214.269 117.49C214.25 117.699 214.239 117.848 214.236 117.939L214.197 119.308C214.195 119.4 214.198 119.524 214.206 119.68C214.215 119.837 214.223 120 214.231 120.17C214.24 120.34 214.248 120.503 214.257 120.66C214.265 120.817 214.268 120.941 214.266 121.032L214.186 121.069L213.326 121.006L213.251 120.906C213.261 120.528 213.158 120.257 212.941 120.094C212.736 119.945 212.425 119.851 212.008 119.813C211.748 119.78 211.468 119.752 211.168 119.731C210.881 119.722 210.666 119.716 210.522 119.712C210.327 119.707 210.111 119.7 209.876 119.694C209.654 119.7 209.51 119.716 209.444 119.74L209.349 119.659Z" fill="#7df9ff"/>
<path d="M212.406 129.929L212.124 129.414C212.224 128.717 212.317 128.025 212.403 127.339C212.486 126.666 212.579 125.975 212.681 125.265L212.91 123.677C212.821 123.651 212.732 123.632 212.641 123.619C212.564 123.607 212.486 123.596 212.409 123.585C212.073 123.537 211.728 123.547 211.376 123.615C211.023 123.683 210.693 123.82 210.387 124.026C210.091 124.247 209.831 124.539 209.608 124.902C209.397 125.267 209.252 125.727 209.172 126.282C209.114 126.682 209.105 127.109 209.146 127.563C209.197 128.032 209.285 128.473 209.41 128.886L209.227 129.195L208.529 129.095L208.344 128.871C208.143 128.526 207.977 128.034 207.844 127.396C207.71 126.771 207.693 126.109 207.793 125.412C207.892 124.728 208.092 124.118 208.393 123.581C208.706 123.06 209.098 122.622 209.571 122.268C210.042 121.928 210.579 121.682 211.181 121.531C211.781 121.393 212.43 121.375 213.128 121.475C213.839 121.577 214.468 121.786 215.016 122.102C215.564 122.418 216.016 122.805 216.372 123.265C216.726 123.737 216.98 124.261 217.135 124.837C217.288 125.426 217.318 126.036 217.227 126.669C217.179 127.004 217.08 127.372 216.93 127.772C216.778 128.185 216.545 128.567 216.231 128.917C215.93 129.269 215.524 129.566 215.015 129.809C214.518 130.054 213.886 130.181 213.12 130.189L212.406 129.929ZM215.771 126.479C215.862 125.847 215.741 125.309 215.41 124.866C215.089 124.438 214.684 124.136 214.195 123.96L214.055 124.928C213.99 125.38 213.933 125.826 213.882 126.267C213.845 126.71 213.794 127.157 213.729 127.609C213.705 127.777 213.732 127.906 213.812 127.996C213.904 128.088 214.002 128.142 214.105 128.157C214.493 128.213 214.849 128.073 215.174 127.737C215.5 127.402 215.698 126.983 215.771 126.479Z" fill="#7df9ff"/>
<path d="M212.532 141.361L213.079 139.28C212.347 139.088 211.667 138.903 211.039 138.724C210.42 138.562 209.877 138.419 209.41 138.297C208.956 138.177 208.585 138.073 208.298 137.984C208.007 137.908 207.831 137.862 207.768 137.845C207.275 137.716 206.922 137.724 206.708 137.87C206.494 138.016 206.354 138.216 206.288 138.468C206.238 138.657 206.2 138.876 206.175 139.126C206.15 139.376 206.147 139.591 206.167 139.771L205.929 139.83L205.354 139.477C205.254 139.086 205.202 138.695 205.197 138.303C205.176 137.92 205.206 137.577 205.286 137.274C205.488 136.505 205.809 136.003 206.249 135.767C206.689 135.532 207.186 135.488 207.742 135.634C207.856 135.663 208.075 135.728 208.4 135.827C208.737 135.929 209.157 136.052 209.659 136.198C210.173 136.346 210.763 136.515 211.429 136.703C212.095 136.891 212.819 137.088 213.602 137.294L213.861 136.31L213.976 136.259L214.809 136.478L214.865 136.574L214.871 137.627C215.275 137.733 215.689 137.828 216.112 137.912C216.545 138.012 216.966 138.103 217.377 138.184L217.456 138.346L217.405 138.616C217.382 138.704 217.357 138.826 217.329 138.98C217.299 139.148 217.267 139.321 217.233 139.501C217.212 139.684 217.194 139.855 217.179 140.013C217.161 140.184 217.155 140.31 217.16 140.392L217.04 140.543C216.741 140.397 216.331 140.235 215.811 140.058C215.303 139.884 214.816 139.736 214.348 139.614L213.914 141.724L213.814 141.799L212.602 141.481L212.532 141.361Z" fill="#7df9ff"/>
<path d="M207.495 159.441C207.195 159.283 206.898 159.23 206.605 159.282C206.312 159.334 206.011 159.456 205.703 159.647C205.407 159.845 205.092 160.092 204.759 160.388C204.425 160.684 204.074 161 203.704 161.336C203.323 161.666 202.94 161.973 202.554 162.256C202.18 162.545 201.784 162.764 201.366 162.913C200.953 163.079 200.523 163.154 200.073 163.138C199.629 163.14 199.159 163.01 198.663 162.749C198.155 162.481 197.745 162.139 197.433 161.724C197.132 161.315 196.929 160.847 196.824 160.319C196.724 159.81 196.734 159.247 196.852 158.631C196.965 158.027 197.191 157.402 197.533 156.756C197.898 156.064 198.35 155.417 198.889 154.817C199.428 154.216 199.99 153.724 200.577 153.34L200.839 153.389L202.949 155.01L202.538 155.789L202.388 155.821C201.555 155.47 200.849 155.437 200.271 155.722C199.686 156.018 199.181 156.57 198.754 157.378C198.334 158.174 198.168 158.823 198.256 159.327C198.356 159.837 198.683 160.238 199.237 160.53C199.595 160.718 199.929 160.799 200.239 160.77C200.549 160.742 200.858 160.632 201.166 160.441C201.468 160.26 201.783 160.014 202.111 159.7C202.439 159.386 202.811 159.044 203.228 158.674C203.598 158.338 203.963 158.037 204.325 157.771C204.699 157.511 205.077 157.312 205.46 157.174C205.848 157.054 206.255 157.011 206.68 157.043C207.106 157.076 207.561 157.22 208.046 157.476C209.062 158.011 209.673 158.754 209.88 159.703C210.081 160.665 209.822 161.826 209.103 163.187C208.774 163.81 208.392 164.352 207.955 164.815C207.53 165.285 207.122 165.652 206.731 165.918L206.504 165.886L204.676 164.569L205.114 163.738L205.247 163.697C205.768 163.884 206.253 163.874 206.701 163.668C207.15 163.462 207.538 163.047 207.867 162.425C208.233 161.733 208.378 161.123 208.302 160.597C208.226 160.07 207.957 159.685 207.495 159.441Z" fill="#7df9ff"/>
<path d="M196.426 173.755L197.642 171.979C197.017 171.552 196.439 171.149 195.907 170.77C195.379 170.41 194.916 170.093 194.517 169.821C194.129 169.556 193.815 169.333 193.574 169.153C193.326 168.984 193.176 168.881 193.122 168.844C192.701 168.557 192.366 168.446 192.115 168.512C191.865 168.578 191.666 168.718 191.518 168.934C191.408 169.095 191.299 169.289 191.191 169.516C191.083 169.742 191.009 169.944 190.967 170.121L190.723 170.096L190.3 169.57C190.337 169.169 190.419 168.783 190.547 168.412C190.656 168.044 190.799 167.731 190.976 167.473C191.426 166.816 191.897 166.451 192.39 166.377C192.884 166.304 193.367 166.429 193.842 166.752C193.939 166.819 194.123 166.953 194.396 167.155C194.68 167.365 195.033 167.622 195.457 167.927C195.892 168.24 196.391 168.596 196.955 168.997C197.518 169.398 198.134 169.827 198.802 170.283L199.377 169.444L199.502 169.434L200.213 169.92L200.234 170.029L199.885 171.023C200.23 171.259 200.588 171.487 200.958 171.709C201.332 171.948 201.699 172.175 202.058 172.389L202.078 172.568L201.939 172.805C201.888 172.881 201.823 172.987 201.745 173.123C201.66 173.27 201.572 173.423 201.479 173.581C201.398 173.747 201.324 173.901 201.257 174.045C201.182 174.2 201.134 174.317 201.111 174.396L200.947 174.497C200.715 174.259 200.383 173.97 199.953 173.628C199.533 173.294 199.124 172.991 198.725 172.719L197.606 174.561L197.486 174.598L196.452 173.891L196.426 173.755Z" fill="#7df9ff"/>
<path d="M184 176.795C184.063 176.901 184.174 177.032 184.333 177.187C184.484 177.352 184.616 177.509 184.728 177.658L184.785 177.682C184.74 177.435 184.717 177.173 184.715 176.896C184.705 176.629 184.727 176.355 184.781 176.073C184.835 175.792 184.926 175.517 185.055 175.249C185.166 174.983 185.324 174.731 185.529 174.494C185.837 174.14 186.16 173.876 186.5 173.704C186.839 173.532 187.174 173.434 187.506 173.41C187.837 173.386 188.164 173.428 188.486 173.534C188.8 173.651 189.085 173.82 189.342 174.042C189.727 174.375 189.989 174.749 190.13 175.164C190.271 175.579 190.31 176.002 190.249 176.432C190.194 176.833 190.062 177.245 189.851 177.666C189.651 178.097 189.434 178.496 189.201 178.864C188.968 179.232 188.741 179.553 188.521 179.828C188.309 180.111 188.165 180.297 188.088 180.386L187.909 180.593C188.223 180.848 188.477 181.033 188.671 181.148C188.874 181.273 189.056 181.361 189.217 181.414C189.491 181.497 189.758 181.468 190.016 181.33C190.276 181.209 190.526 181.011 190.765 180.735C190.91 180.568 191.054 180.373 191.195 180.15C191.338 179.945 191.447 179.73 191.524 179.502C191.6 179.275 191.629 179.042 191.612 178.803C191.596 178.582 191.498 178.376 191.318 178.186L191.325 178.088L191.735 177.615L193.242 178.686L193.292 178.807C193.3 178.918 193.266 179.087 193.19 179.314C193.114 179.541 193.002 179.799 192.856 180.087C192.72 180.383 192.552 180.686 192.352 180.996C192.154 181.325 191.931 181.632 191.683 181.918C191.349 182.302 190.988 182.619 190.598 182.869C190.219 183.127 189.833 183.293 189.44 183.368C189.039 183.452 188.636 183.439 188.23 183.329C187.834 183.228 187.448 183.015 187.074 182.691C186.669 182.341 186.328 182.037 186.05 181.779C185.764 181.532 185.502 181.296 185.264 181.073C185.026 180.849 184.793 180.63 184.565 180.416C184.338 180.219 184.081 179.997 183.795 179.749C183.551 179.573 183.367 179.456 183.242 179.401C183.118 179.345 182.997 179.326 182.877 179.343C182.73 179.354 182.578 179.43 182.422 179.57C182.267 179.729 182.129 179.878 182.009 180.016L181.912 180.009L181.383 179.603L181.337 179.537C181.502 179.386 181.683 179.207 181.881 178.999C182.079 178.79 182.259 178.593 182.422 178.405C182.661 178.129 182.9 177.853 183.14 177.577C183.369 177.293 183.581 177.019 183.775 176.755L184 176.795ZM185.598 178.178C185.622 178.251 185.655 178.331 185.699 178.421C185.734 178.52 185.796 178.617 185.886 178.712L187.08 179.875L187.196 179.742C187.461 179.437 187.702 179.119 187.919 178.789C188.136 178.459 188.292 178.129 188.389 177.799C188.486 177.468 188.5 177.144 188.43 176.825C188.361 176.506 188.169 176.21 187.853 175.937C187.587 175.706 187.319 175.587 187.05 175.578C186.773 175.58 186.536 175.694 186.339 175.92C186.194 176.088 186.068 176.273 185.962 176.474C185.858 176.694 185.776 176.908 185.717 177.116C185.657 177.324 185.616 177.521 185.592 177.707C185.579 177.902 185.58 178.059 185.598 178.178Z" fill="#7df9ff"/>
<path d="M182.176 188.275C182.248 188.546 182.318 188.835 182.388 189.143C182.449 189.459 182.481 189.775 182.486 190.089C182.491 190.403 182.451 190.706 182.364 190.997C182.268 191.298 182.095 191.563 181.845 191.792C181.768 191.862 181.668 191.937 181.544 192.014C181.42 192.111 181.292 192.193 181.16 192.261C181.018 192.338 180.876 192.406 180.735 192.464C180.594 192.523 180.473 192.554 180.371 192.559L180.19 192.565L178.933 190.85L179.554 190.281C179.689 190.37 179.871 190.415 180.102 190.416C180.333 190.435 180.573 190.33 180.823 190.1C181.044 189.898 181.193 189.655 181.27 189.372C181.355 189.099 181.391 188.819 181.375 188.532C181.36 188.245 181.302 187.97 181.203 187.708C181.112 187.455 180.996 187.251 180.855 187.097L179.941 186.103C179.606 185.738 179.354 185.464 179.186 185.281C179.009 185.108 178.854 184.958 178.72 184.832C178.507 184.639 178.324 184.488 178.172 184.38C178.018 184.29 177.872 184.247 177.734 184.25C177.66 184.247 177.571 184.266 177.468 184.308C177.364 184.368 177.264 184.433 177.168 184.503C177.073 184.573 176.987 184.643 176.91 184.713C176.823 184.793 176.756 184.854 176.708 184.898L176.57 184.893L176.104 184.443L176.08 184.359C176.137 184.306 176.238 184.223 176.381 184.109C176.525 183.995 176.678 183.873 176.841 183.741C176.995 183.6 177.143 183.473 177.287 183.359C177.421 183.235 177.518 183.147 177.575 183.094L178.499 182.248C178.566 182.186 178.672 182.089 178.816 181.957C178.942 181.824 179.082 181.686 179.236 181.545C179.381 181.395 179.521 181.248 179.656 181.107C179.782 180.973 179.879 180.876 179.946 180.814L180.014 180.859L180.435 181.375L180.445 181.473C180.281 181.622 180.132 181.768 179.996 181.91C179.87 182.062 179.803 182.211 179.797 182.359C179.782 182.496 179.808 182.631 179.876 182.764C179.935 182.904 180.074 183.113 180.293 183.391C180.389 183.515 180.526 183.673 180.702 183.865C180.879 184.057 181.126 184.326 181.444 184.672L182.41 185.724C182.596 185.926 182.75 186.094 182.874 186.229C183.006 186.373 183.126 186.493 183.232 186.59C183.33 186.696 183.423 186.787 183.512 186.865C183.591 186.952 183.68 187.038 183.778 187.126C183.885 187.204 183.998 187.269 184.116 187.32C184.234 187.371 184.32 187.398 184.376 187.4C184.587 187.437 184.773 187.399 184.935 187.286C185.097 187.173 185.255 187.046 185.409 186.905L185.519 186.91L185.97 187.4L185.952 187.496L185.692 187.734C185.48 187.928 185.206 188.179 184.87 188.488C184.542 188.806 184.266 189.094 184.043 189.352L183.604 189.887L183.266 189.693C183.156 189.457 183.009 189.211 182.826 188.954C182.634 188.706 182.436 188.471 182.233 188.25L182.176 188.275Z" fill="#7df9ff"/>
<path d="M170.36 198.858L172.102 197.593C171.657 196.981 171.248 196.408 170.875 195.873C170.499 195.356 170.169 194.902 169.885 194.512C169.609 194.132 169.388 193.817 169.222 193.566C169.046 193.324 168.938 193.176 168.9 193.123C168.6 192.712 168.322 192.495 168.064 192.473C167.805 192.451 167.571 192.516 167.359 192.67C167.201 192.784 167.033 192.931 166.855 193.108C166.678 193.285 166.539 193.45 166.44 193.602L166.219 193.497L165.997 192.86C166.167 192.495 166.375 192.159 166.62 191.852C166.846 191.543 167.087 191.296 167.34 191.112C167.984 190.644 168.551 190.459 169.041 190.555C169.53 190.651 169.944 190.931 170.281 191.395C170.35 191.49 170.479 191.679 170.668 191.961C170.865 192.253 171.111 192.614 171.408 193.044C171.712 193.484 172.062 193.988 172.458 194.555C172.854 195.121 173.29 195.732 173.766 196.386L174.59 195.788L174.711 195.821L175.217 196.518L175.2 196.627L174.537 197.446C174.783 197.784 175.043 198.119 175.317 198.452C175.588 198.803 175.857 199.14 176.124 199.462L176.082 199.638L175.872 199.814C175.798 199.868 175.702 199.946 175.582 200.049C175.453 200.159 175.318 200.273 175.178 200.391C175.045 200.519 174.923 200.64 174.812 200.753C174.69 200.874 174.605 200.968 174.557 201.035L174.368 201.075C174.229 200.773 174.014 200.389 173.724 199.923C173.441 199.467 173.157 199.044 172.874 198.654L171.2 200.014L171.075 200.008L170.338 198.995L170.36 198.858Z" fill="#7df9ff"/>
<path d="M157.894 202.974L158.13 202.437C158.744 202.091 159.349 201.742 159.945 201.391C160.529 201.046 161.134 200.697 161.76 200.344L163.158 199.555C163.124 199.47 163.085 199.387 163.04 199.307C163.002 199.239 162.963 199.171 162.924 199.103C162.758 198.808 162.54 198.541 162.27 198.304C162.001 198.066 161.691 197.889 161.34 197.773C160.985 197.674 160.594 197.647 160.17 197.691C159.752 197.748 159.298 197.913 158.81 198.189C158.457 198.388 158.114 198.642 157.778 198.951C157.438 199.277 157.143 199.616 156.892 199.968L156.534 200.012L156.188 199.399L156.252 199.115C156.403 198.746 156.691 198.314 157.116 197.819C157.53 197.331 158.044 196.914 158.658 196.568C159.26 196.228 159.866 196.013 160.475 195.924C161.08 195.853 161.666 195.896 162.236 196.054C162.793 196.219 163.316 196.493 163.803 196.878C164.279 197.268 164.69 197.77 165.036 198.383C165.389 199.008 165.608 199.633 165.692 200.26C165.777 200.886 165.745 201.481 165.598 202.043C165.44 202.611 165.18 203.133 164.818 203.606C164.445 204.086 163.98 204.484 163.423 204.798C163.127 204.965 162.775 205.111 162.366 205.237C161.946 205.369 161.501 205.417 161.032 205.383C160.569 205.359 160.086 205.22 159.582 204.965C159.084 204.722 158.598 204.299 158.123 203.699L157.894 202.974ZM162.683 203.53C163.24 203.216 163.593 202.792 163.742 202.259C163.885 201.744 163.877 201.239 163.718 200.745L162.865 201.226C162.467 201.45 162.078 201.677 161.698 201.907C161.325 202.147 160.939 202.38 160.541 202.604C160.393 202.688 160.308 202.788 160.284 202.906C160.268 203.036 160.285 203.146 160.336 203.237C160.529 203.577 160.857 203.774 161.322 203.826C161.786 203.879 162.24 203.78 162.683 203.53Z" fill="#7df9ff"/>
<path d="M146.675 202.864C146.711 202.948 146.759 203.112 146.819 203.356C146.873 203.616 146.926 203.842 146.978 204.032L147.026 204.096C147.105 203.412 147.36 202.809 147.791 202.287C148.228 201.777 148.746 201.395 149.348 201.141C150.009 200.862 150.637 200.739 151.232 200.771C151.814 200.808 152.352 200.956 152.844 201.215C153.337 201.475 153.77 201.83 154.145 202.28C154.52 202.731 154.824 203.232 155.058 203.785C155.399 204.59 155.562 205.328 155.548 205.999C155.528 206.687 155.393 207.289 155.143 207.805C154.899 208.333 154.575 208.774 154.172 209.128C153.762 209.5 153.335 209.779 152.89 209.967C152.349 210.196 151.76 210.295 151.125 210.266C150.489 210.238 149.881 210.006 149.3 209.571L149.294 209.659C149.466 209.997 149.628 210.346 149.78 210.707C149.938 211.079 150.09 211.439 150.238 211.788C150.395 212.16 150.525 212.466 150.626 212.707C150.733 212.959 150.828 213.167 150.911 213.33C150.982 213.498 151.052 213.646 151.12 213.773C151.176 213.905 151.24 214.04 151.313 214.179C151.376 214.295 151.466 214.391 151.584 214.469C151.702 214.546 151.787 214.595 151.838 214.616C152.062 214.677 152.266 214.69 152.45 214.655C152.621 214.625 152.815 214.565 153.032 214.473L153.134 214.515L153.386 215.11L153.344 215.212L152.316 215.646C152.04 215.763 151.751 215.885 151.45 216.012C151.143 216.156 150.876 216.296 150.651 216.434L150.058 216.791L149.805 216.494C149.809 216.436 149.795 216.335 149.763 216.193C149.724 216.068 149.68 215.931 149.631 215.782C149.57 215.637 149.518 215.497 149.474 215.359C149.418 215.227 149.375 215.125 149.344 215.053C149.268 214.873 149.2 214.696 149.141 214.523C149.075 214.367 148.996 214.181 148.905 213.964C148.818 213.76 148.715 213.499 148.595 213.182C148.468 212.882 148.303 212.491 148.1 212.011L146.438 208.083C146.224 207.578 146.052 207.17 145.92 206.857C145.78 206.562 145.668 206.312 145.581 206.108C145.483 205.909 145.401 205.731 145.335 205.575C145.262 205.436 145.173 205.261 145.07 205.05C144.954 204.844 144.858 204.7 144.781 204.619C144.693 204.544 144.594 204.493 144.484 204.469C144.347 204.413 144.189 204.409 144.011 204.456C143.837 204.515 143.679 204.575 143.534 204.636L143.432 204.595L143.136 203.997L143.142 203.91C143.357 203.848 143.587 203.772 143.832 203.682C144.078 203.593 144.309 203.502 144.525 203.411C144.85 203.274 145.175 203.137 145.499 203C145.819 202.85 146.118 202.703 146.396 202.557L146.675 202.864ZM152.973 204.686C152.821 204.326 152.629 203.989 152.397 203.677C152.159 203.381 151.891 203.133 151.594 202.933C151.301 202.745 150.982 202.625 150.634 202.573C150.279 202.539 149.909 202.603 149.525 202.766C149.116 202.938 148.783 203.157 148.526 203.421C148.263 203.702 148.063 203.984 147.928 204.268C147.786 204.569 147.7 204.852 147.672 205.119C147.631 205.391 147.637 205.608 147.692 205.769L148.538 207.769C148.628 207.915 148.779 208.071 148.99 208.237C149.195 208.419 149.449 208.567 149.752 208.68C150.043 208.798 150.375 208.863 150.749 208.875C151.127 208.899 151.533 208.82 151.966 208.637C152.363 208.469 152.667 208.235 152.88 207.933C153.097 207.643 153.244 207.319 153.319 206.961C153.383 206.609 153.38 206.235 153.312 205.839C153.244 205.443 153.131 205.059 152.973 204.686Z" fill="#7df9ff"/>
<path d="M125.162 213.78L125.197 212.146L131.525 211.052L131.51 212.682L125.162 213.78Z" fill="#7df9ff"/>
<path d="M99.3836 209.245C100.046 209.087 100.74 208.963 101.464 208.874C102.189 208.772 102.943 208.743 103.725 208.788C104.859 208.852 105.84 209.078 106.668 209.465C107.482 209.864 108.152 210.379 108.678 211.01C109.191 211.64 109.562 212.361 109.79 213.17C110.018 213.98 110.107 214.828 110.056 215.713C110.003 216.651 109.809 217.515 109.476 218.306C109.13 219.096 108.653 219.774 108.046 220.34C107.438 220.906 106.701 221.334 105.834 221.625C104.967 221.928 103.973 222.047 102.852 221.983C102.604 221.969 102.318 221.94 101.994 221.895C101.657 221.85 101.307 221.784 100.946 221.698C100.585 221.612 100.219 221.5 99.8473 221.361C99.4623 221.234 99.0987 221.077 98.7564 220.887L98.7274 220.709L99.1816 218.599L100.061 218.65L100.136 218.713C100.176 219.159 100.423 219.532 100.876 219.833C101.316 220.145 102.038 220.33 103.041 220.387C103.667 220.423 104.224 220.396 104.713 220.307C105.188 220.229 105.637 220.046 106.059 219.756C106.358 219.551 106.608 219.298 106.808 218.996C107.008 218.707 107.17 218.383 107.296 218.024C107.421 217.666 107.514 217.286 107.577 216.884C107.639 216.483 107.681 216.08 107.705 215.677C107.75 214.883 107.686 214.167 107.514 213.53C107.328 212.893 107.058 212.348 106.705 211.897C106.351 211.446 105.927 211.088 105.432 210.825C104.924 210.574 104.37 210.431 103.77 210.397C103.588 210.386 103.392 210.382 103.182 210.383C102.959 210.396 102.743 210.417 102.532 210.444C102.321 210.471 102.136 210.506 101.977 210.549C101.804 210.592 101.684 210.637 101.616 210.685C101.535 210.72 101.487 210.769 101.47 210.834C101.453 210.898 101.442 210.982 101.436 211.086C101.431 211.178 101.422 211.327 101.41 211.536C101.398 211.744 101.402 211.907 101.421 212.026C101.428 212.366 101.485 212.624 101.593 212.8C101.687 212.988 101.771 213.111 101.846 213.167C101.958 213.278 102.13 213.347 102.364 213.373C102.598 213.4 102.819 213.419 103.028 213.431L103.121 213.514L103.133 214.338L103.089 214.414C102.998 214.409 102.855 214.394 102.66 214.37C102.452 214.345 102.244 214.32 102.037 214.295C101.816 214.269 101.608 214.244 101.413 214.22C101.206 214.195 101.056 214.18 100.965 214.175L99.5963 214.097C99.505 214.092 99.3808 214.091 99.2237 214.095C99.0665 214.099 98.9029 214.103 98.7327 214.106C98.5625 214.11 98.3988 214.113 98.2417 214.117C98.0845 214.122 97.9604 214.121 97.8691 214.116L97.8345 214.035L97.9228 213.178L98.025 213.106C98.403 213.127 98.6765 213.032 98.8456 212.82C99.0009 212.619 99.1035 212.312 99.1534 211.897C99.1944 211.638 99.2299 211.359 99.2601 211.06C99.2765 210.774 99.2888 210.559 99.297 210.416C99.3082 210.22 99.3205 210.006 99.3339 209.771C99.3335 209.549 99.3222 209.405 99.2998 209.338L99.3836 209.245Z" fill="#7df9ff"/>
<path d="M89.0204 212.005L89.5436 211.738C90.2382 211.858 90.9275 211.97 91.6115 212.075C92.2827 212.178 92.972 212.291 93.6795 212.413L95.2617 212.686C95.2902 212.599 95.3122 212.51 95.3278 212.42C95.3411 212.343 95.3545 212.266 95.3678 212.189C95.4257 211.855 95.4257 211.51 95.3678 211.156C95.3099 210.802 95.1821 210.469 94.9845 210.157C94.7717 209.855 94.4869 209.588 94.1299 209.354C93.7707 209.133 93.3145 208.975 92.7614 208.879C92.3626 208.81 91.9357 208.789 91.4805 208.817C91.0102 208.854 90.5666 208.93 90.1495 209.043L89.8448 208.852L89.965 208.158L90.1947 207.979C90.5458 207.788 91.0425 207.636 91.6849 207.522C92.3145 207.406 92.9766 207.408 93.6712 207.528C94.353 207.646 94.958 207.863 95.4861 208.179C95.9992 208.506 96.4259 208.911 96.7663 209.393C97.0939 209.873 97.3244 210.416 97.458 211.021C97.5788 211.625 97.579 212.273 97.4588 212.967C97.3364 213.674 97.1093 214.296 96.7776 214.835C96.4458 215.373 96.045 215.813 95.575 216.155C95.0921 216.495 94.5605 216.734 93.9801 216.872C93.3869 217.008 92.7752 217.021 92.1449 216.912C91.8104 216.855 91.4451 216.745 91.0491 216.584C90.6402 216.421 90.265 216.177 89.9236 215.853C89.58 215.542 89.2939 215.129 89.0653 214.613C88.8345 214.11 88.7258 213.476 88.7391 212.71L89.0204 212.005ZM92.376 215.463C93.0063 215.572 93.5478 215.467 94.0005 215.149C94.4381 214.84 94.7518 214.445 94.9415 213.961L93.9767 213.794C93.5265 213.717 93.0816 213.646 92.642 213.584C92.2002 213.534 91.7542 213.47 91.304 213.392C91.1367 213.363 91.0067 213.387 90.914 213.464C90.819 213.553 90.7626 213.649 90.7448 213.752C90.678 214.137 90.8077 214.497 91.134 214.832C91.4603 215.166 91.8743 215.377 92.376 215.463Z" fill="#7df9ff"/>
<path d="M77.5769 211.804L79.6437 212.41C79.857 211.684 80.0619 211.011 80.2583 210.389C80.4385 209.775 80.5967 209.237 80.7328 208.774C80.8652 208.324 80.9799 207.957 81.0771 207.672C81.1617 207.385 81.2131 207.209 81.2315 207.147C81.375 206.659 81.3767 206.306 81.2366 206.088C81.0965 205.87 80.9012 205.725 80.6507 205.651C80.4628 205.596 80.2443 205.553 79.9953 205.52C79.7463 205.488 79.5312 205.479 79.3499 205.494L79.2979 205.255L79.6678 204.69C80.0612 204.602 80.4542 204.561 80.8469 204.567C81.2307 204.557 81.573 204.597 81.8736 204.685C82.6377 204.909 83.1311 205.244 83.3538 205.69C83.5764 206.136 83.6069 206.634 83.445 207.185C83.4119 207.297 83.3413 207.514 83.2332 207.836C83.1213 208.17 82.9856 208.586 82.826 209.083C82.6626 209.592 82.4772 210.176 82.2698 210.836C82.0623 211.495 81.8446 212.213 81.6165 212.989L82.5936 213.275L82.6411 213.391L82.3984 214.217L82.3012 214.27L81.2469 214.246C81.1292 214.647 81.0222 215.057 80.9259 215.477C80.8134 215.907 80.7108 216.325 80.6181 216.733L80.4535 216.807L80.1849 216.748C80.0973 216.723 79.9764 216.694 79.8224 216.663C79.6559 216.627 79.4831 216.59 79.3041 216.551C79.1214 216.525 78.9512 216.502 78.7935 216.483C78.6233 216.46 78.497 216.45 78.4145 216.453L78.2674 216.329C78.422 216.034 78.5953 215.63 78.7874 215.115C78.9757 214.613 79.138 214.131 79.2741 213.668L77.1742 213.174L77.1023 213.071L77.4554 211.87L77.5769 211.804Z" fill="#7df9ff"/>
<path d="M59.6297 206.258C59.7966 205.963 59.8583 205.668 59.8147 205.374C59.7711 205.08 59.6578 204.776 59.4749 204.463C59.2855 204.162 59.0474 203.84 58.7607 203.499C58.474 203.157 58.1677 202.797 57.842 202.419C57.5226 202.029 57.2267 201.637 56.9543 201.244C56.6755 200.862 56.4678 200.46 56.3313 200.039C56.1769 199.622 56.114 199.19 56.1425 198.742C56.1532 198.298 56.2966 197.832 56.5726 197.344C56.8551 196.845 57.2085 196.445 57.6328 196.145C58.0508 195.857 58.5251 195.667 59.0557 195.577C59.5686 195.492 60.1314 195.518 60.7442 195.654C61.3456 195.783 61.9646 196.028 62.6012 196.387C63.2832 196.772 63.9171 197.241 64.5029 197.797C65.0886 198.352 65.5652 198.928 65.9326 199.524L65.8756 199.784L64.1931 201.845L63.4258 201.413L63.3983 201.262C63.7731 200.44 63.8262 199.736 63.5576 199.15C63.2777 198.558 62.7399 198.038 61.9442 197.589C61.1598 197.146 60.5144 196.962 60.008 197.036C59.4951 197.121 59.0846 197.436 58.7765 197.981C58.5774 198.333 58.4876 198.664 58.507 198.975C58.5264 199.285 58.6276 199.597 58.8105 199.91C58.9821 200.216 59.2201 200.538 59.5247 200.874C59.8292 201.211 60.1606 201.592 60.519 202.019C60.8448 202.398 61.1357 202.772 61.3918 203.141C61.6415 203.521 61.8297 203.904 61.9563 204.29C62.0652 204.681 62.0972 205.089 62.0524 205.513C62.0076 205.937 61.8504 206.387 61.5808 206.864C61.0158 207.864 60.2553 208.453 59.2993 208.633C58.3318 208.806 57.1774 208.514 55.8361 207.757C55.2222 207.411 54.6899 207.013 54.2391 206.564C53.7818 206.127 53.4259 205.709 53.1713 205.31L53.209 205.084L54.5795 203.297L55.398 203.758L55.4351 203.892C55.2337 204.407 55.2297 204.891 55.423 205.345C55.6164 205.799 56.02 206.199 56.6339 206.545C57.3159 206.93 57.9215 207.092 58.4507 207.031C58.9799 206.97 59.3729 206.712 59.6297 206.258Z" fill="#7df9ff"/>
<path d="M45.6229 194.796L47.3656 196.061C47.8107 195.449 48.2303 194.883 48.6245 194.363C49.0005 193.846 49.3305 193.393 49.6144 193.002C49.8907 192.622 50.1223 192.315 50.3094 192.08C50.4858 191.837 50.5933 191.69 50.6316 191.637C50.9309 191.225 51.0512 190.894 50.9925 190.641C50.9339 190.389 50.7989 190.187 50.5877 190.033C50.4293 189.918 50.2382 189.804 50.0145 189.69C49.7908 189.576 49.5911 189.495 49.4155 189.449L49.447 189.205L49.9853 188.798C50.3856 188.847 50.7695 188.94 51.1372 189.078C51.502 189.198 51.8111 189.35 52.0646 189.534C52.7089 190.001 53.0609 190.482 53.1206 190.977C53.1803 191.472 53.0414 191.951 52.7038 192.415C52.6347 192.51 52.4951 192.691 52.2851 192.958C52.0673 193.235 51.7997 193.581 51.4822 193.995C51.157 194.42 50.7858 194.908 50.3686 195.46C49.9513 196.011 49.5048 196.614 49.0291 197.268L49.8529 197.866L49.8587 197.991L49.3522 198.688L49.2428 198.705L48.2579 198.329C48.0123 198.666 47.7735 199.017 47.5414 199.38C47.2911 199.747 47.0537 200.106 46.8293 200.459L46.6493 200.474L46.416 200.329C46.3421 200.275 46.2379 200.208 46.1035 200.126C45.9585 200.037 45.8083 199.944 45.6527 199.847C45.4895 199.761 45.3369 199.683 45.1948 199.612C45.0421 199.533 44.9264 199.481 44.8477 199.456L44.7512 199.29C44.9958 199.064 45.2951 198.741 45.6491 198.321C45.9954 197.912 46.3105 197.512 46.5944 197.121L44.7827 195.952L44.7495 195.831L45.4862 194.818L45.6229 194.796Z" fill="#7df9ff"/>
<path d="M42.9363 182.301C42.828 182.361 42.694 182.469 42.5343 182.623C42.365 182.769 42.2042 182.896 42.0517 183.004L42.0264 183.06C42.2743 183.022 42.5369 183.006 42.8144 183.013C43.0822 183.01 43.3561 183.04 43.6359 183.102C43.9158 183.164 44.188 183.263 44.4525 183.399C44.7163 183.517 44.9636 183.682 45.1944 183.894C45.5407 184.211 45.7951 184.542 45.9577 184.886C46.1203 185.229 46.2087 185.567 46.2229 185.899C46.2372 186.23 46.1864 186.556 46.0708 186.874C45.9455 187.184 45.7681 187.464 45.5385 187.714C45.1943 188.089 44.8124 188.34 44.3929 188.469C43.9734 188.598 43.5495 188.625 43.1214 188.551C42.7212 188.485 42.3131 188.341 41.897 188.119C41.4721 187.907 41.0789 187.679 40.7174 187.436C40.3558 187.193 40.0408 186.957 39.7723 186.729C39.495 186.51 39.313 186.361 39.2265 186.281L39.0245 186.096C38.7604 186.403 38.5678 186.651 38.4466 186.841C38.3166 187.04 38.2226 187.22 38.1648 187.379C38.0748 187.651 38.0955 187.917 38.2269 188.179C38.3398 188.442 38.5309 188.697 38.8002 188.944C38.9637 189.094 39.1549 189.243 39.3737 189.39C39.5741 189.539 39.787 189.654 40.0123 189.737C40.2376 189.819 40.4701 189.856 40.7099 189.845C40.9312 189.836 41.1398 189.744 41.3356 189.569L41.433 189.579L41.8947 190.002L40.7799 191.476L40.6571 191.523C40.5465 191.528 40.3785 191.489 40.1532 191.406C39.9279 191.323 39.6733 191.205 39.3895 191.051C39.0969 190.907 38.7983 190.73 38.4937 190.522C38.1706 190.314 37.8696 190.082 37.5907 189.827C37.2156 189.483 36.9087 189.113 36.6699 188.717C36.4224 188.331 36.267 187.94 36.2039 187.546C36.1312 187.143 36.1555 186.741 36.2768 186.338C36.3894 185.946 36.6133 185.567 36.9488 185.202C37.3107 184.808 37.6245 184.476 37.8901 184.206C38.1461 183.928 38.3892 183.673 38.6195 183.441C38.8498 183.21 39.0757 182.983 39.2972 182.762C39.5002 182.541 39.7297 182.291 39.9857 182.012C40.1695 181.774 40.2911 181.593 40.3505 181.471C40.4099 181.348 40.4325 181.227 40.4181 181.108C40.4118 180.96 40.3405 180.806 40.2043 180.646C40.0496 180.487 39.9049 180.345 39.7703 180.222L39.78 180.124L40.2013 179.608L40.2687 179.563C40.4145 179.732 40.5889 179.919 40.7916 180.122C40.9944 180.326 41.1871 180.512 41.3699 180.679C41.6392 180.926 41.9085 181.173 42.1778 181.42C42.4559 181.657 42.7241 181.877 42.9822 182.078L42.9363 182.301ZM41.5063 183.858C41.4333 183.879 41.3515 183.911 41.2608 183.951C41.1606 183.983 41.0615 184.043 40.9636 184.13L39.766 185.289L39.8958 185.408C40.194 185.682 40.505 185.931 40.8288 186.157C41.1527 186.383 41.4786 186.55 41.8065 186.655C42.1344 186.761 42.4588 186.784 42.7796 186.725C43.1004 186.665 43.4021 186.481 43.6846 186.174C43.9229 185.914 44.0502 185.65 44.0664 185.382C44.073 185.105 43.9657 184.865 43.7444 184.662C43.5809 184.512 43.3998 184.381 43.201 184.27C42.9837 184.159 42.772 184.071 42.566 184.006C42.3599 183.941 42.1639 183.894 41.9778 183.865C41.783 183.846 41.6258 183.843 41.5063 183.858Z" fill="#7df9ff"/>
<path d="M31.5005 180.152C31.2276 180.216 30.9362 180.278 30.6264 180.339C30.3081 180.391 29.9917 180.414 29.6774 180.41C29.363 180.406 29.0611 180.357 28.7717 180.262C28.4738 180.158 28.2137 179.977 27.9914 179.721C27.923 179.642 27.8517 179.54 27.7774 179.415C27.6847 179.288 27.6061 179.157 27.5416 179.023C27.4686 178.88 27.4049 178.736 27.3503 178.594C27.2957 178.451 27.2674 178.329 27.2655 178.227L27.2645 178.047L29.0167 176.841L29.5681 177.476C29.4754 177.608 29.4254 177.79 29.4181 178.02C29.3925 178.25 29.4908 178.492 29.713 178.749C29.9097 178.975 30.1484 179.131 30.4292 179.216C30.7002 179.309 30.9794 179.352 31.2668 179.345C31.5542 179.338 31.8308 179.288 32.0965 179.196C32.3523 179.113 32.5592 179.003 32.717 178.866L33.7382 177.982C34.1131 177.658 34.3943 177.414 34.5817 177.252C34.7606 177.08 34.9149 176.929 35.0445 176.8C35.2444 176.592 35.4006 176.414 35.5131 176.265C35.6072 176.114 35.6546 175.97 35.6552 175.831C35.6605 175.757 35.6437 175.668 35.6049 175.564C35.5477 175.458 35.4856 175.357 35.4185 175.259C35.3514 175.162 35.2837 175.074 35.2153 174.995C35.1384 174.907 35.0785 174.838 35.0358 174.788L35.0457 174.65L35.5084 174.198L35.5932 174.176C35.6445 174.235 35.7251 174.338 35.8349 174.485C35.9447 174.631 36.0631 174.788 36.19 174.954C36.3268 175.112 36.4501 175.264 36.5599 175.41C36.6796 175.548 36.7651 175.647 36.8164 175.706L37.6371 176.652C37.697 176.721 37.791 176.83 37.9192 176.977C38.0488 177.107 38.182 177.25 38.3187 177.408C38.4654 177.557 38.6078 177.701 38.7459 177.841C38.8754 177.97 38.9701 178.069 39.03 178.138L38.9836 178.204L38.4548 178.61L38.3571 178.617C38.2118 178.45 38.07 178.296 37.9319 178.157C37.784 178.026 37.6363 177.956 37.489 177.945C37.3516 177.926 37.2157 177.949 37.0816 178.013C36.9388 178.068 36.7257 178.2 36.4422 178.411C36.3153 178.504 36.1532 178.636 35.9558 178.806C35.7585 178.977 35.4823 179.216 35.1271 179.524L34.0467 180.459C33.8396 180.638 33.6669 180.788 33.5288 180.907C33.3808 181.035 33.2568 181.151 33.1568 181.255C33.0483 181.349 32.9539 181.439 32.8736 181.526C32.7849 181.603 32.6954 181.689 32.6053 181.784C32.5237 181.889 32.4556 182 32.401 182.116C32.3464 182.233 32.3172 182.318 32.3132 182.374C32.2704 182.583 32.3033 182.77 32.4118 182.935C32.5203 183.1 32.643 183.262 32.7797 183.419L32.7718 183.53L32.2687 183.965L32.173 183.945L31.9422 183.678C31.7541 183.462 31.5104 183.181 31.2112 182.836C30.9021 182.499 30.6216 182.216 30.3698 181.985L29.8469 181.532L30.0512 181.2C30.2899 181.097 30.5405 180.957 30.803 180.782C31.0569 180.597 31.2973 180.406 31.5242 180.209L31.5005 180.152Z" fill="#7df9ff"/>
<path d="M21.2486 168.051L22.4644 169.827C23.0894 169.4 23.6751 169.008 24.2212 168.651C24.7493 168.29 25.2127 167.973 25.6114 167.701C25.9994 167.436 26.3209 167.224 26.5762 167.066C26.824 166.896 26.9749 166.793 27.0288 166.756C27.4491 166.469 27.674 166.197 27.7035 165.94C27.7331 165.683 27.6742 165.447 27.5268 165.231C27.4163 165.07 27.2749 164.898 27.1025 164.715C26.9302 164.533 26.7692 164.39 26.6195 164.287L26.731 164.069L27.375 163.866C27.7356 164.046 28.0658 164.263 28.3657 164.516C28.669 164.751 28.9091 164.998 29.086 165.256C29.5355 165.913 29.7051 166.484 29.595 166.97C29.4848 167.456 29.1927 167.861 28.7185 168.185C28.6215 168.252 28.4292 168.375 28.1417 168.556C27.8434 168.744 27.475 168.979 27.0366 169.263C26.5874 169.554 26.0735 169.889 25.495 170.269C24.9165 170.648 24.2931 171.066 23.625 171.522L24.1998 172.362L24.1631 172.482L23.4519 172.968L23.343 172.947L22.542 172.262C22.1971 172.498 21.8543 172.748 21.5134 173.012C21.1543 173.273 20.8098 173.532 20.4797 173.789L20.3053 173.743L20.1344 173.528C20.0828 173.452 20.0074 173.354 19.9082 173.232C19.8017 173.099 19.6914 172.961 19.5775 172.818C19.4527 172.682 19.3354 172.557 19.2254 172.442C19.1081 172.317 19.0165 172.229 18.9508 172.18L18.9159 171.99C19.2222 171.86 19.6127 171.656 20.0874 171.379C20.5513 171.11 20.9827 170.839 21.3814 170.567L20.0686 168.857L20.078 168.732L21.1125 168.025L21.2486 168.051Z" fill="#7df9ff"/>
<path d="M17.486 155.485L18.017 155.736C18.346 156.359 18.6777 156.973 19.0122 157.578C19.3405 158.172 19.6722 158.786 20.0073 159.42L20.7566 160.839C20.8435 160.808 20.9274 160.771 21.0082 160.729C21.0775 160.692 21.1468 160.656 21.2161 160.619C21.5163 160.461 21.7891 160.251 22.0344 159.989C22.2798 159.727 22.4658 159.422 22.5926 159.075C22.7016 158.723 22.7398 158.334 22.7072 157.909C22.663 157.49 22.5099 157.032 22.2479 156.536C22.059 156.179 21.8148 155.828 21.5153 155.485C21.1982 155.136 20.8674 154.831 20.523 154.57L20.4889 154.212L21.1124 153.883L21.3943 153.956C21.7599 154.117 22.184 154.417 22.6666 154.856C23.1431 155.283 23.5459 155.808 23.8749 156.431C24.1977 157.042 24.3951 157.653 24.4669 158.264C24.521 158.87 24.4608 159.454 24.2863 160.018C24.1057 160.57 23.8162 161.084 23.4178 161.56C23.0133 162.024 22.4994 162.42 21.8759 162.749C21.2408 163.083 20.6087 163.284 19.9795 163.35C19.3502 163.416 18.7564 163.368 18.1981 163.205C17.6337 163.031 17.1196 162.756 16.6559 162.381C16.1861 161.995 15.8019 161.519 15.5034 160.954C15.345 160.654 15.2088 160.298 15.0946 159.887C14.9744 159.463 14.9384 159.018 14.9865 158.55C15.0231 158.088 15.1762 157.61 15.4456 157.114C15.7035 156.624 16.1399 156.151 16.7547 155.694L17.486 155.485ZM16.7932 160.252C17.0917 160.817 17.5056 161.181 18.0347 161.345C18.5462 161.503 19.0515 161.509 19.5506 161.364L19.0936 160.499C18.8804 160.095 18.6645 159.701 18.4458 159.315C18.2155 158.935 17.9938 158.543 17.7806 158.139C17.7014 157.989 17.6031 157.901 17.4857 157.874C17.3568 157.854 17.2461 157.868 17.1538 157.916C16.8074 158.099 16.6013 158.421 16.5355 158.884C16.4697 159.346 16.5556 159.802 16.7932 160.252Z" fill="#7df9ff"/>
<path d="M17.9164 144.286C17.8313 144.319 17.666 144.362 17.4207 144.415C17.1584 144.461 16.9313 144.508 16.7394 144.554L16.6735 144.601C17.3562 144.699 17.9525 144.971 18.4624 145.417C18.96 145.867 19.3273 146.396 19.5641 147.004C19.8246 147.672 19.9303 148.303 19.8812 148.895C19.8273 149.476 19.6636 150.009 19.3901 150.493C19.1165 150.977 18.7489 151.4 18.2874 151.762C17.8259 152.123 17.3153 152.413 16.7557 152.63C15.9406 152.947 15.1974 153.089 14.5262 153.056C13.8381 153.016 13.2395 152.864 12.7304 152.6C12.2091 152.341 11.777 152.005 11.4342 151.593C11.0744 151.173 10.8069 150.738 10.6316 150.289C10.4185 149.742 10.3355 149.151 10.3825 148.517C10.4296 147.883 10.6788 147.282 11.1301 146.715L11.0429 146.707C10.6996 146.869 10.3455 147.02 9.9805 147.162C9.60337 147.309 9.23841 147.451 8.88562 147.588C8.50849 147.735 8.19828 147.855 7.95497 147.95C7.6995 148.049 7.48897 148.138 7.3234 148.217C7.15308 148.283 7.00338 148.348 6.8743 148.412C6.74048 148.464 6.60295 148.525 6.4617 148.594C6.34478 148.653 6.24579 148.741 6.16472 148.856C6.08365 148.972 6.03197 149.055 6.00969 149.105C5.94218 149.328 5.92333 149.531 5.95314 149.715C5.97822 149.887 6.03339 150.083 6.11864 150.302L6.07407 150.403L5.47188 150.637L5.37047 150.593L4.96551 149.554C4.85658 149.274 4.7429 148.982 4.62449 148.679C4.48918 148.367 4.35591 148.097 4.22469 147.868L3.88479 147.266L4.18887 147.022C4.24701 147.027 4.34772 147.016 4.49101 146.988C4.6174 146.953 4.75596 146.913 4.90668 146.868C5.05266 146.812 5.19493 146.763 5.33348 146.723C5.4673 146.671 5.57071 146.631 5.6437 146.603C5.82618 146.532 6.00495 146.469 6.18 146.415C6.33815 146.354 6.52671 146.28 6.74568 146.195C6.95249 146.115 7.21642 146.019 7.53745 145.908C7.84159 145.79 8.23696 145.636 8.72357 145.447L12.7016 143.9C13.2126 143.701 13.6262 143.54 13.9425 143.417C14.2419 143.287 14.495 143.181 14.7018 143.101C14.9039 143.008 15.084 142.931 15.2421 142.87C15.3834 142.801 15.5611 142.718 15.7754 142.62C15.9849 142.511 16.1312 142.419 16.2143 142.345C16.2927 142.258 16.3457 142.16 16.3734 142.052C16.4328 141.917 16.4415 141.759 16.3996 141.58C16.3454 141.405 16.2899 141.245 16.2331 141.099L16.2777 140.997L16.8839 140.72L16.9711 140.728C17.0273 140.944 17.0966 141.176 17.1792 141.423C17.2618 141.671 17.3457 141.905 17.4309 142.123C17.5588 142.451 17.6867 142.78 17.8146 143.108C17.9546 143.431 18.0937 143.734 18.2317 144.016L17.9164 144.286ZM15.9133 150.523C16.2783 150.381 16.6206 150.199 16.9402 149.976C17.2429 149.747 17.4987 149.486 17.7074 149.195C17.904 148.909 18.033 148.593 18.0944 148.247C18.1389 147.894 18.0853 147.523 17.9338 147.134C17.7727 146.721 17.5637 146.382 17.3068 146.118C17.0329 145.847 16.756 145.64 16.4761 145.497C16.1793 145.346 15.8977 145.253 15.6314 145.216C15.3603 145.168 15.1433 145.168 14.9805 145.218L12.9549 146.005C12.8062 146.091 12.6461 146.237 12.4745 146.444C12.286 146.643 12.1309 146.893 12.0094 147.192C11.8831 147.479 11.8085 147.809 11.7857 148.182C11.7507 148.559 11.8184 148.966 11.989 149.404C12.1453 149.805 12.3715 150.116 12.6676 150.337C12.9516 150.562 13.2714 150.718 13.627 150.803C13.9778 150.877 14.3523 150.885 14.7504 150.828C15.1486 150.771 15.5362 150.669 15.9133 150.523Z" fill="#7df9ff"/>
<path d="M7.60853 122.491L9.24252 122.573L10.1566 128.924L8.5254 128.862L7.60853 122.491Z" fill="#7df9ff"/>
<path d="M12.8822 96.8799C13.0215 97.5463 13.1254 98.2424 13.194 98.9683C13.2757 99.6952 13.283 100.448 13.2159 101.228C13.1188 102.358 12.8648 103.331 12.454 104.147C12.0313 104.949 11.4968 105.603 10.8504 106.11C10.2052 106.605 9.47409 106.954 8.65721 107.159C7.84032 107.364 6.98965 107.428 6.10517 107.352C5.16867 107.272 4.3095 107.054 3.52764 106.699C2.74691 106.331 2.08196 105.836 1.53279 105.213C0.983629 104.59 0.576265 103.841 0.3107 102.968C0.0321286 102.093 -0.059119 101.097 0.0369574 99.9795C0.0581836 99.7326 0.095768 99.4478 0.149711 99.1252C0.204771 98.7896 0.28046 98.4427 0.376775 98.0845C0.47309 97.7262 0.595978 97.3637 0.745439 96.997C0.883009 96.6161 1.05142 96.2575 1.25067 95.9212L1.42962 95.8973L3.52777 96.4111L3.45236 97.2881L3.38712 97.3611C2.9393 97.3881 2.55871 97.6238 2.24535 98.0681C1.92009 98.4983 1.71446 99.2137 1.62843 100.214C1.57481 100.838 1.58586 101.395 1.66159 101.886C1.72543 102.363 1.89611 102.816 2.17365 103.245C2.37019 103.55 2.61672 103.807 2.91325 104.016C3.19677 104.223 3.51615 104.395 3.87141 104.53C4.22667 104.665 4.60423 104.769 5.00409 104.843C5.40396 104.917 5.8055 104.971 6.20871 105.005C7.00214 105.073 7.71995 105.03 8.36216 104.876C9.00548 104.709 9.55796 104.455 10.0196 104.115C10.4812 103.775 10.8509 103.362 11.1286 102.875C11.3944 102.374 11.553 101.825 11.6044 101.227C11.62 101.045 11.6303 100.85 11.6351 100.641C11.6281 100.418 11.614 100.201 11.5929 99.9893C11.5717 99.778 11.5418 99.5922 11.5032 99.4318C11.4657 99.2585 11.4237 99.137 11.3773 99.0676C11.345 98.9863 11.2969 98.9364 11.2329 98.9178C11.169 98.8992 11.085 98.8855 10.981 98.8765C10.8899 98.8687 10.7404 98.8559 10.5322 98.838C10.3241 98.8202 10.1604 98.8192 10.0411 98.8352C9.70072 98.8321 9.44094 98.8818 9.2618 98.9843C9.07076 99.0726 8.94588 99.1535 8.88715 99.227C8.77304 99.335 8.69942 99.5054 8.66631 99.7382C8.63319 99.9709 8.6077 100.191 8.58982 100.399L8.5034 100.49L7.67894 100.478L7.60425 100.432C7.61207 100.341 7.63086 100.199 7.66062 100.005C7.69151 99.7985 7.72239 99.5917 7.75327 99.385C7.78527 99.1652 7.81615 98.9584 7.84591 98.7646C7.8768 98.5578 7.89615 98.409 7.90397 98.318L8.02127 96.9537C8.02909 96.8627 8.0332 96.7387 8.0336 96.5817C8.034 96.4247 8.03496 96.2611 8.03647 96.0911C8.03799 95.9211 8.03894 95.7575 8.03934 95.6005C8.03974 95.4435 8.04385 95.3195 8.05167 95.2285L8.13307 95.1962L8.98817 95.3089L9.05784 95.413C9.02544 95.7898 9.1131 96.0657 9.32081 96.2406C9.51663 96.4013 9.82154 96.5126 10.2355 96.5743C10.4934 96.6226 10.7714 96.6661 11.0694 96.7048C11.3556 96.7293 11.5702 96.7477 11.7133 96.76C11.9084 96.7767 12.123 96.7951 12.3571 96.8152C12.5794 96.8212 12.7241 96.814 12.7914 96.7936L12.8822 96.8799Z" fill="#7df9ff"/>
<path d="M10.4168 86.4528L10.669 86.9829C10.529 87.6731 10.3966 88.3582 10.272 89.0382C10.15 89.7054 10.0177 90.3906 9.87512 91.0935L9.55624 92.6657C9.64321 92.6966 9.73148 92.7211 9.82104 92.7393C9.89781 92.7548 9.97458 92.7703 10.0513 92.7859C10.384 92.8532 10.7283 92.863 11.0843 92.8153C11.4403 92.7676 11.7773 92.6495 12.0953 92.4611C12.403 92.2572 12.6789 91.9804 12.9231 91.6307C13.1544 91.2783 13.3258 90.8273 13.4372 90.2777C13.5176 89.8815 13.5507 89.4557 13.5365 89.0004C13.5121 88.5297 13.4492 88.0846 13.3478 87.6648L13.5483 87.3661L14.2392 87.506L14.4114 87.7404C14.5923 88.0964 14.7306 88.5968 14.8262 89.2415C14.9245 89.8735 14.9036 90.5346 14.7636 91.2248C14.6262 91.9022 14.3917 92.5001 14.0601 93.0185C13.7184 93.5215 13.3013 93.9361 12.8089 94.2622C12.3191 94.5755 11.7693 94.7903 11.1597 94.9064C10.5527 95.0097 9.90368 94.9915 9.21276 94.8516C8.50904 94.7092 7.89264 94.4646 7.36354 94.118C6.83444 93.7714 6.40535 93.3585 6.07629 92.8794C5.74982 92.3875 5.52587 91.8499 5.40445 91.2664C5.28563 90.6702 5.28973 90.0589 5.41677 89.4326C5.48417 89.1003 5.60414 88.7387 5.77666 88.3478C5.95178 87.9442 6.20618 87.5765 6.53985 87.2448C6.86073 86.9106 7.28259 86.6367 7.80542 86.4232C8.31546 86.2071 8.9532 86.1166 9.71863 86.1518L10.4168 86.4528ZM6.86007 89.7048C6.73304 90.3311 6.82255 90.8748 7.12862 91.336C7.42448 91.7818 7.81155 92.1063 8.2898 92.3095L8.48425 91.3509C8.57499 90.9036 8.65803 90.4613 8.73338 90.0241C8.79594 89.5844 8.87259 89.1408 8.96333 88.6935C8.99703 88.5273 8.97688 88.3968 8.90287 88.302C8.81607 88.2046 8.72149 88.1455 8.61913 88.1248C8.23529 88.0471 7.87143 88.1664 7.52755 88.4827C7.18367 88.799 6.96118 89.2063 6.86007 89.7048Z" fill="#7df9ff"/>
<path d="M10.9444 75.0315L10.2787 77.078C10.9989 77.3117 11.6673 77.5355 12.2841 77.7494C12.8924 77.9469 13.4263 78.1202 13.8857 78.2693C14.3327 78.4144 14.6969 78.5395 14.9785 78.6446C15.264 78.7373 15.4378 78.7937 15.4999 78.8138C15.9841 78.971 16.3372 78.9827 16.5591 78.8491C16.781 78.7154 16.9324 78.5246 17.013 78.2765C17.0735 78.0905 17.1235 77.8736 17.1629 77.6258C17.2023 77.3781 17.2172 77.1635 17.2076 76.9821L17.4487 76.937L18.0028 77.3225C18.0801 77.7178 18.1099 78.1115 18.0923 78.5034C18.0911 78.887 18.042 79.2276 17.9452 79.5253C17.6991 80.2818 17.3498 80.765 16.8973 80.9746C16.4448 81.1842 15.9454 81.2004 15.3991 81.0231C15.2873 80.9868 15.072 80.9101 14.7533 80.7929C14.4221 80.6717 14.0102 80.5243 13.5176 80.3507C13.0126 80.173 12.433 79.9712 11.779 79.7452C11.125 79.5192 10.4131 79.2813 9.64335 79.0314L9.32868 79.9989L9.21136 80.0431L8.39191 79.7771L8.34162 79.6785L8.39555 78.6264C7.99824 78.4975 7.59069 78.3789 7.1729 78.2707C6.74673 78.1461 6.33095 78.0317 5.92557 77.9276L5.85619 77.7611L5.92228 77.4945C5.95052 77.4077 5.98264 77.2879 6.01863 77.135C6.05866 76.9697 6.10071 76.7983 6.14477 76.6206C6.17642 76.4389 6.20403 76.2696 6.22761 76.1127C6.25522 75.9434 6.26871 75.8175 6.26808 75.735L6.39704 75.5918C6.68727 75.7545 7.08706 75.9392 7.59643 76.1456C8.09338 76.3481 8.57154 76.5238 9.03093 76.673L9.58483 74.5902L9.68958 74.5213L10.8815 74.9082L10.9444 75.0315Z" fill="#7df9ff"/>
<path d="M17.0064 57.2684C17.297 57.4435 17.5902 57.5135 17.8858 57.4784C18.1814 57.4433 18.4883 57.3388 18.8067 57.1651C19.1138 56.9846 19.4423 56.7561 19.7922 56.4795C20.1421 56.2029 20.511 55.9074 20.899 55.5929C21.2982 55.2852 21.6985 55.0009 22.0999 54.7401C22.49 54.4726 22.8979 54.2766 23.3236 54.1523C23.7448 54.0101 24.1793 53.9597 24.627 54.0009C25.0702 54.0243 25.5322 54.1807 26.0129 54.4703C26.5048 54.7666 26.8947 55.1309 27.1825 55.5632C27.4592 55.9888 27.635 56.4678 27.71 57.0003C27.7805 57.5149 27.7389 58.0762 27.5853 58.6842C27.4385 59.281 27.1763 59.8921 26.7988 60.5175C26.3943 61.1876 25.9059 61.8072 25.3338 62.3763C24.7616 62.9453 24.1717 63.4047 23.5642 63.7545L23.3058 63.6902L21.2913 61.9513L21.7463 61.1974L21.8975 61.1743C22.7093 61.572 23.4122 61.6451 24.006 61.3937C24.6066 61.1311 25.1429 60.6089 25.6148 59.8272C26.08 59.0566 26.2829 58.4174 26.2236 57.9095C26.1531 57.395 25.8495 56.976 25.3129 56.6528C24.9663 56.444 24.6374 56.3449 24.3262 56.3554C24.015 56.3659 23.7002 56.458 23.3819 56.6317C23.0703 56.7943 22.7418 57.0228 22.3964 57.3173C22.0509 57.6118 21.6595 57.9318 21.2222 58.2775C20.8342 58.592 20.4518 58.8719 20.0751 59.1171C19.6873 59.3555 19.2984 59.5325 18.9086 59.6479C18.5143 59.7454 18.1057 59.7658 17.6827 59.7089C17.2597 59.6521 16.8134 59.4822 16.3438 59.1994C15.36 58.6067 14.792 57.8305 14.6396 56.8707C14.494 55.8997 14.8189 54.7553 15.6144 53.4374C15.9785 52.8344 16.3916 52.3142 16.8538 51.8768C17.3048 51.4327 17.7332 51.0892 18.139 50.8464L18.3639 50.8905L20.1138 52.3101L19.6284 53.1142L19.494 53.1474C18.984 52.9316 18.4993 52.9138 18.0399 53.0939C17.5806 53.2741 17.1688 53.6657 16.8048 54.2687C16.4003 54.9388 16.221 55.5389 16.2668 56.0691C16.3127 56.5993 16.5592 56.9991 17.0064 57.2684Z" fill="#7df9ff"/>
<path d="M28.8751 43.6091L27.5597 45.3131C28.1593 45.775 28.7136 46.2102 29.2226 46.6187C29.7291 47.0089 30.1737 47.3514 30.5562 47.646C30.9284 47.9327 31.2293 48.1728 31.4591 48.3663C31.6969 48.5495 31.8417 48.6609 31.8934 48.7008C32.2965 49.0113 32.6251 49.141 32.8791 49.0896C33.1331 49.0382 33.3398 48.9092 33.4992 48.7027C33.6188 48.5478 33.7388 48.3602 33.8593 48.1401C33.9797 47.92 34.0659 47.7229 34.1179 47.5488L34.3602 47.5873L34.7523 48.1364C34.6922 48.5347 34.5878 48.9155 34.4394 49.2787C34.3092 49.6395 34.1484 49.9439 33.9571 50.1917C33.4708 50.8217 32.9793 51.1595 32.4826 51.205C31.9858 51.2505 31.51 51.0981 31.0552 50.7477C30.9621 50.676 30.7852 50.5315 30.5244 50.3141C30.2532 50.0887 29.9149 49.8116 29.5093 49.4828C29.0934 49.1459 28.6155 48.7613 28.0755 48.3289C27.5356 47.8965 26.9451 47.4334 26.3042 46.9397L25.6824 47.7452L25.557 47.7475L24.8747 47.2218L24.8605 47.1121L25.2652 46.1393C24.9344 45.8845 24.5904 45.636 24.2333 45.3938C23.8738 45.1334 23.5207 44.8861 23.1739 44.6519L23.1646 44.4718L23.3165 44.243C23.3723 44.1707 23.4429 44.0686 23.5282 43.9367C23.6215 43.7945 23.7188 43.6471 23.82 43.4945C23.911 43.334 23.9939 43.1838 24.0689 43.044C24.1519 42.8938 24.2069 42.7798 24.2341 42.7019L24.4037 42.6102C24.6223 42.861 24.9368 43.1691 25.3471 43.5345C25.747 43.892 26.1382 44.2181 26.5208 44.5127L27.7431 42.737L27.8649 42.7074L28.8573 43.4719L28.8751 43.6091Z" fill="#7df9ff"/>
<path d="M41.4546 41.2832C41.3977 41.1733 41.2942 41.0364 41.1441 40.8726C41.0032 40.6994 40.8808 40.5351 40.777 40.3798L40.7212 40.3529C40.7525 40.6015 40.7609 40.8642 40.7464 41.1411C40.741 41.4086 40.7033 41.6812 40.6334 41.9589C40.5635 42.2366 40.4566 42.5056 40.3126 42.7658C40.1871 43.0259 40.0151 43.2681 39.7968 43.4926C39.4692 43.8293 39.1311 44.0739 38.7825 44.2264C38.4338 44.3789 38.0934 44.4576 37.7611 44.4623C37.4288 44.467 37.1048 44.4071 36.7892 44.2825C36.4826 44.1485 36.2076 43.9634 35.9642 43.7271C35.599 43.3726 35.3581 42.9841 35.2412 42.5615C35.1244 42.1389 35.1091 41.7149 35.1954 41.2894C35.2728 40.8918 35.4286 40.4884 35.6628 40.0792C35.8876 39.661 36.1267 39.2749 36.3801 38.9208C36.6336 38.5667 36.8784 38.2589 37.1147 37.9973C37.3417 37.7266 37.4961 37.5491 37.578 37.465L37.769 37.2686C37.4697 36.9962 37.2268 36.7967 37.0404 36.6703C36.8446 36.5347 36.6677 36.4358 36.5099 36.3735C36.2408 36.2759 35.9732 36.2889 35.7073 36.4126C35.441 36.5179 35.1806 36.7014 34.9258 36.9633C34.7711 37.1223 34.6169 37.3089 34.463 37.5232C34.3088 37.7191 34.1872 37.9284 34.098 38.151C34.0089 38.3736 33.966 38.6048 33.9695 38.8445C33.9726 39.0658 34.0587 39.2767 34.2278 39.4772L34.2153 39.5742L33.7786 40.0231L32.3357 38.8678L32.2924 38.7439C32.2908 38.6333 32.3346 38.4666 32.4237 38.244C32.5129 38.0214 32.6385 37.7706 32.8007 37.4916C32.9536 37.2035 33.1386 36.9104 33.3559 36.6122C33.573 36.2955 33.8134 36.0016 34.0773 35.7303C34.4321 35.3656 34.811 35.0697 35.214 34.8426C35.6076 34.6064 36.0025 34.4624 36.3988 34.4107C36.8041 34.3496 37.2062 34.3853 37.6051 34.518C37.9946 34.6415 38.3672 34.876 38.723 35.2214C39.1068 35.594 39.43 35.9168 39.6924 36.1898C39.9639 36.4533 40.2121 36.7034 40.437 36.94C40.662 37.1766 40.8823 37.4086 41.0978 37.6361C41.3132 37.8451 41.5566 38.0815 41.8281 38.345C42.0616 38.5354 42.2388 38.662 42.3597 38.7248C42.4807 38.7876 42.6011 38.8136 42.7209 38.8027C42.8686 38.8005 43.0246 38.7338 43.1889 38.6023C43.3529 38.4524 43.4986 38.312 43.626 38.1811L43.7231 38.1935L44.2279 38.629L44.2704 38.6975C44.097 38.8384 43.9055 39.0071 43.696 39.2038C43.4865 39.4004 43.2953 39.5876 43.1224 39.7653C42.8677 40.0272 42.6129 40.289 42.3582 40.5509C42.1128 40.8219 41.8857 41.0833 41.677 41.3353L41.4546 41.2832ZM39.938 39.8107C39.9185 39.7372 39.8896 39.6546 39.8514 39.563C39.8222 39.4619 39.7654 39.3613 39.6809 39.261L38.5555 38.0321L38.4326 38.1583C38.1506 38.4482 37.8918 38.7517 37.6563 39.0686C37.4208 39.3855 37.2453 39.7062 37.13 40.0306C37.0146 40.3551 36.9823 40.6783 37.033 41.0004C37.0838 41.3225 37.259 41.6289 37.5586 41.9198C37.8113 42.1652 38.0718 42.2998 38.3398 42.3236C38.617 42.3381 38.8602 42.2378 39.0695 42.0227C39.2242 41.8637 39.3601 41.6866 39.4773 41.4912C39.5943 41.2774 39.6882 41.0686 39.7592 40.8647C39.8301 40.6608 39.8827 40.4663 39.917 40.2814C39.942 40.0874 39.9489 39.9305 39.938 39.8107Z" fill="#7df9ff"/>
<path d="M43.9316 29.9251C43.8756 29.6508 43.8215 29.358 43.7692 29.047C43.7271 28.7276 43.7125 28.4111 43.7254 28.0972C43.7384 27.7834 43.7963 27.4834 43.8993 27.1971C44.0124 26.9026 44.2003 26.648 44.463 26.4334C44.5439 26.3674 44.6482 26.299 44.7759 26.2284C44.9054 26.1394 45.0381 26.0647 45.1741 26.0042C45.3202 25.9354 45.4653 25.8758 45.6095 25.8254C45.7538 25.775 45.8769 25.7502 45.9788 25.7512L46.1593 25.7553L47.3161 27.5395L46.6643 28.0719C46.5348 27.9756 46.3548 27.9205 46.1242 27.9066C45.8955 27.8744 45.6498 27.9657 45.387 28.1803C45.1546 28.3702 44.9919 28.6041 44.8991 28.8821C44.798 29.15 44.7469 29.4276 44.7459 29.7148C44.7449 30.002 44.7866 30.2796 44.871 30.5475C44.9472 30.8054 45.0514 31.0151 45.1836 31.1766L46.0389 32.2216C46.353 32.6052 46.5885 32.8929 46.7455 33.0848C46.9126 33.2683 47.0591 33.4266 47.1849 33.5597C47.3869 33.7653 47.5609 33.9264 47.7069 34.043C47.8548 34.1412 47.9981 34.1926 48.1367 34.1973C48.2102 34.2046 48.2998 34.1904 48.4054 34.1547C48.5129 34.1006 48.6163 34.0414 48.7155 33.9772C48.8147 33.913 48.9048 33.8479 48.9856 33.7819C49.0766 33.7076 49.1473 33.6498 49.1978 33.6085L49.3356 33.6223L49.775 34.0973L49.7943 34.1826C49.7336 34.2322 49.6284 34.3097 49.4787 34.4151C49.3289 34.5206 49.1691 34.6343 48.9991 34.7563C48.8374 34.8884 48.6817 35.0072 48.5319 35.1127C48.3904 35.2283 48.2894 35.3108 48.2287 35.3603L47.2585 36.1529C47.1878 36.2107 47.0766 36.3015 46.925 36.4253C46.7918 36.551 46.6443 36.6798 46.4826 36.8119C46.3292 36.9541 46.1808 37.0922 46.0375 37.2261C45.9043 37.3518 45.8023 37.4435 45.7315 37.5013L45.6668 37.4531L45.2756 36.9134L45.2715 36.8157C45.4433 36.6754 45.6009 36.5382 45.7442 36.4043C45.8793 36.2603 45.9542 36.1149 45.9689 35.9681C45.992 35.8313 45.9732 35.6951 45.9126 35.5592C45.8621 35.4152 45.7354 35.1986 45.5325 34.9095C45.4434 34.7801 45.3163 34.6144 45.151 34.4125C44.9857 34.2106 44.7543 33.9279 44.4568 33.5644L43.5519 32.459C43.3784 32.2469 43.2338 32.0703 43.1181 31.9289C42.9941 31.7775 42.8816 31.6504 42.7806 31.5476C42.6897 31.4365 42.602 31.3397 42.5175 31.2571C42.4432 31.1662 42.3596 31.0744 42.2669 30.9817C42.164 30.8973 42.0552 30.8261 41.9404 30.7683C41.8256 30.7104 41.7406 30.6788 41.6855 30.6732C41.477 30.6245 41.2887 30.652 41.1206 30.7557C40.9525 30.8593 40.7876 30.9772 40.6259 31.1092L40.5157 31.0982L40.0942 30.5833L40.1176 30.4883L40.3905 30.2655C40.6129 30.0838 40.9009 29.8486 41.2546 29.5596C41.6001 29.2606 41.8918 28.9886 42.1297 28.7437L42.5983 28.2345L42.9248 28.448C43.0212 28.6893 43.1534 28.9435 43.3214 29.2106C43.4995 29.4694 43.6836 29.7149 43.8737 29.9471L43.9316 29.9251Z" fill="#7df9ff"/>
<path d="M56.3335 20.0335L54.5214 21.1969C54.9307 21.8332 55.3064 22.4292 55.6483 22.9848C55.9941 23.5224 56.2976 23.9941 56.5588 24.4001C56.8129 24.795 57.0156 25.1222 57.1669 25.3816C57.3293 25.6339 57.4281 25.7875 57.4634 25.8424C57.7386 26.2702 58.0045 26.5026 58.261 26.5395C58.5175 26.5763 58.7555 26.5243 58.9752 26.3832C59.1399 26.2775 59.316 26.1412 59.5035 25.9743C59.691 25.8074 59.8385 25.6507 59.946 25.5042L60.1613 25.6218L60.3459 26.2706C60.1553 26.6255 59.9289 26.9491 59.6669 27.2414C59.4229 27.5375 59.1691 27.7702 58.9056 27.9394C58.2356 28.3695 57.6591 28.5226 57.1759 28.3988C56.6927 28.2749 56.2959 27.9716 55.9853 27.4889C55.9218 27.3901 55.8038 27.1946 55.6313 26.9023C55.4517 26.599 55.2262 26.2244 54.9549 25.7786C54.6765 25.3217 54.3558 24.799 53.9927 24.2105C53.6296 23.622 53.2292 22.9876 52.7916 22.3074L51.935 22.8573L51.8162 22.8174L51.3504 22.0933L51.3739 21.9851L52.0823 21.2048C51.8565 20.8537 51.6161 20.5042 51.3612 20.1562C51.1103 19.7903 50.8609 19.4388 50.6131 19.1018L50.6648 18.9291L50.8849 18.7645C50.9618 18.7152 51.0626 18.6427 51.1873 18.5471C51.323 18.4445 51.4642 18.3384 51.6109 18.2287C51.7506 18.108 51.8792 17.9944 51.9969 17.8879C52.1255 17.7743 52.2158 17.6853 52.2675 17.6211L52.4581 17.5917C52.5797 17.9013 52.7722 18.297 53.0357 18.7789C53.2921 19.2499 53.5509 19.6884 53.812 20.0943L55.5606 18.8322L55.6853 18.8451L56.3629 19.8984L56.3335 20.0335Z" fill="#7df9ff"/>
<path d="M69.0141 16.6351L68.7478 17.1582C68.1152 17.4689 67.4913 17.7826 66.8762 18.0993C66.2727 18.4102 65.6488 18.7239 65.0045 19.0404L63.5635 19.7482C63.5921 19.8358 63.6266 19.9206 63.6669 20.0026C63.7014 20.0728 63.736 20.143 63.7706 20.2132C63.9203 20.5175 64.1228 20.7959 64.378 21.0484C64.6332 21.3009 64.9326 21.4954 65.2761 21.6318C65.6256 21.7508 66.0136 21.8 66.4399 21.7796C66.8605 21.7474 67.3227 21.6076 67.8264 21.3601C68.1896 21.1818 68.5473 20.9479 68.8996 20.6587C69.2578 20.3519 69.5723 20.0304 69.8431 19.6939L70.2023 19.67L70.5134 20.302L70.4327 20.5814C70.2609 20.9419 69.9487 21.3568 69.496 21.8262C69.055 22.2899 68.5182 22.6771 67.8856 22.9878C67.2647 23.2928 66.6475 23.4723 66.0341 23.5266C65.4267 23.5633 64.8433 23.4865 64.2841 23.2962C63.7366 23.1 63.2307 22.7963 62.7664 22.3849C62.3138 21.9678 61.932 21.4432 61.6209 20.8113C61.3041 20.1676 61.1216 19.5306 61.0732 18.9004C61.0249 18.2702 61.0902 17.6786 61.269 17.1257C61.4596 16.5671 61.7491 16.0616 62.1374 15.6093C62.5375 15.1512 63.0246 14.7812 63.5986 14.4992C63.9032 14.3496 64.2631 14.2237 64.6784 14.1215C65.1053 14.0135 65.5521 13.9903 66.0187 14.0517C66.4796 14.1014 66.9544 14.2679 67.4429 14.5511C67.9257 14.8227 68.3868 15.2719 68.8263 15.8989L69.0141 16.6351ZM64.2642 15.8072C63.6902 16.0892 63.3138 16.492 63.1351 17.0157C62.9624 17.522 62.9416 18.0264 63.0725 18.5288L63.9511 18.0973C64.3612 17.8959 64.7625 17.6915 65.155 17.4841C65.5418 17.2651 65.9402 17.0549 66.3503 16.8535C66.5026 16.7787 66.5937 16.6831 66.6237 16.5666C66.6479 16.4385 66.637 16.3276 66.5909 16.2339C66.4181 15.8828 66.1013 15.6678 65.6406 15.5889C65.1799 15.51 64.7211 15.5828 64.2642 15.8072Z" fill="#7df9ff"/>
<path d="M80.2084 17.3848C80.1777 17.2988 80.1391 17.1326 80.0926 16.886C80.054 16.6229 80.0141 16.3948 79.9729 16.2017L79.9282 16.1346C79.8103 16.8136 79.5212 17.4013 79.0609 17.8976C78.5962 18.3818 78.0564 18.7334 77.4417 18.9525C76.7654 19.1935 76.1313 19.2811 75.5395 19.2151C74.9599 19.1447 74.4318 18.9661 73.955 18.679C73.4782 18.392 73.0656 18.0129 72.7171 17.5417C72.3687 17.0705 72.0935 16.5524 71.8917 15.9874C71.5978 15.1645 71.4768 14.4183 71.5288 13.749C71.5887 13.063 71.758 12.4696 72.0365 11.9687C72.3107 11.4556 72.659 11.0338 73.0815 10.7032C73.5119 10.3559 73.9545 10.1012 74.4095 9.93905C74.9628 9.74184 75.556 9.67579 76.1891 9.7409C76.8223 9.80601 77.4163 10.072 77.9711 10.5389L77.9817 10.452C77.8299 10.1046 77.6882 9.74662 77.5566 9.37813C77.4206 8.99735 77.2889 8.62887 77.1617 8.27266C77.0257 7.89189 76.9138 7.57867 76.8261 7.33301C76.734 7.07507 76.6511 6.86231 76.5773 6.69473C76.5159 6.52277 76.4549 6.37143 76.3944 6.2407C76.3461 6.10558 76.2895 5.96652 76.2246 5.82351C76.1684 5.70506 76.0837 5.60371 75.9705 5.51946C75.8572 5.43521 75.7755 5.38123 75.7255 5.35753C75.5051 5.28377 75.3022 5.25915 75.1169 5.28366C74.9439 5.30378 74.7468 5.35328 74.5255 5.43217L74.4254 5.38477L74.2082 4.77676L74.2557 4.67677L75.3069 4.30206C75.5897 4.20126 75.8848 4.09608 76.1922 3.98652C76.5075 3.86029 76.7815 3.73492 77.0143 3.61042L77.6269 3.28822L77.8626 3.59884C77.8556 3.65674 77.8639 3.75762 77.8875 3.9015C77.9191 4.02871 77.9551 4.16821 77.9954 4.31999C78.0481 4.46738 78.0924 4.61083 78.1283 4.75032C78.1766 4.88543 78.2139 4.98984 78.2402 5.06354C78.306 5.24778 78.3635 5.42808 78.4126 5.60442C78.4696 5.7641 78.5376 5.95448 78.6166 6.17558C78.6912 6.38439 78.7794 6.65066 78.8811 6.9744C78.9908 7.28148 79.1334 7.68067 79.3089 8.17199L80.7434 12.1885C80.9277 12.7044 81.0768 13.122 81.1909 13.4414C81.3129 13.7441 81.4112 13.9998 81.4857 14.2086C81.5726 14.4131 81.6446 14.5951 81.7016 14.7548C81.7665 14.8978 81.8446 15.0777 81.9359 15.2944C82.0395 15.5067 82.1272 15.6554 82.1992 15.7405C82.2835 15.8213 82.3796 15.877 82.4876 15.9077C82.6211 15.971 82.7783 15.9842 82.9592 15.9474C83.1357 15.8983 83.2978 15.8475 83.4453 15.7949L83.5454 15.8423L83.806 16.4556L83.7955 16.5424C83.5777 16.5923 83.3436 16.655 83.0933 16.7304C82.843 16.8057 82.6072 16.8829 82.3859 16.9617C82.0539 17.0801 81.7219 17.1984 81.3899 17.3167C81.0624 17.4473 80.7554 17.5775 80.4691 17.7073L80.2084 17.3848ZM74.0246 15.2064C74.1562 15.5749 74.3286 15.9219 74.5419 16.2475C74.7631 16.5563 75.0164 16.8191 75.3017 17.0359C75.5827 17.2404 75.8953 17.3782 76.2395 17.4494C76.5916 17.5039 76.9644 17.461 77.3579 17.3208C77.7759 17.1718 78.1207 16.9727 78.3921 16.7237C78.6714 16.4579 78.8867 16.1874 79.0378 15.912C79.1968 15.6199 79.2983 15.3414 79.3423 15.0765C79.3986 14.8072 79.4044 14.5905 79.3596 14.4264L78.6292 12.3813C78.5476 12.2304 78.4058 12.0663 78.2039 11.889C78.0099 11.6951 77.7649 11.5332 77.469 11.4033C77.1854 11.2689 76.8574 11.1851 76.4851 11.1516C76.1084 11.1059 75.6987 11.1619 75.2561 11.3197C74.8503 11.4643 74.5328 11.6813 74.3035 11.9708C74.0698 12.2479 73.9051 12.5628 73.8092 12.9154C73.7257 13.2637 73.7067 13.6374 73.7522 14.0365C73.7978 14.4357 73.8886 14.8257 74.0246 15.2064Z" fill="#7df9ff"/>
<path d="M102.311 7.71403L102.182 9.34334L95.8012 10.0748L95.91 8.44767L102.311 7.71403Z" fill="#7df9ff"/>
</svg>
