<svg data-v-fde0c5aa="" xmlns="http://www.w3.org/2000/svg" viewBox="0 0 300 300" class="icon"><!----><defs data-v-fde0c5aa=""><!----></defs><rect data-v-fde0c5aa="" fill="#6D6162" x="0" y="0" width="300px" height="300px" class="logo-background-square"></rect><!----><defs data-v-fde0c5aa=""><!----></defs><g data-v-fde0c5aa="" id="860bab10-00b3-4df6-bf01-bbf60ad1c0bb" fill="#C9A641" stroke="none" transform="matrix(2.258944272994995,0,0,2.258944272994995,37.74105567142627,38.252847745868756)"><path d="M28.628 21.086l4.41 13.719s5.879 8.818 6.859 9.799l1.345.96a69.62 69.62 0 0 1 1.301-5.911c.869-2.535 3.229-5.577 5.677-6.317 1.572-.323 3.039-.099 4.252.6.637.322 2.019 2.029 2.122 2.34l.49.489 1.959.98 2.45.979c.49 0 .49.49 0 .49l-4.409.49-.98.489c-.489.49-.489 1.47 0 2.45l1.96 4.409 3.43-2.449c.979-.98 6.859-9.799 6.859-9.799l4.409-13.719 5.39-18.617c.489-1.96 1.471-1.96 2.45-.49l5.88 9.799 2.449 6.859c.49.979 1.47 1.47 2.449 1.47l2.94-.49h1.47c.979.49.979 1.47.979 2.45L90.36 32.844c0 .979.49 1.96 1.47 2.449l5.39.98c.979.489 1.47.979.979 1.96L87.911 54.892c-.489.98 0 1.47.98 1.96l3.43.49c.979.489 1.47.979.489 1.96l-9.799 7.349c-1.47 1.47-1.47 2.939.49 3.43l.98.49c1.47.489 1.959 1.47.489 2.449l-2.939 1.47c-3.92 1.47-7.84 1.96-7.84 1.96l-7.839.979-6.859-.979 4.409 6.369c1.96 1.96 1.96 5.39-.489 6.859l-7.84 6.859c-2.939 1.959-7.348 1.959-10.288 0l-7.839-6.859c-2.45-1.47-2.939-4.409-.98-6.859 1.96-2.449 5.478-6.369 5.478-6.369l-8.907.979-7.839-.979-7.839-1.96-2.939-1.47c-1.47-.979-.98-1.96.49-2.449l.98-.49c1.959-.49 1.959-1.96.49-3.43l-9.799-7.349c-.98-.98-.49-1.471.49-1.96l3.429-.49c.98-.49 1.47-.979.98-1.96L1.192 38.234c-.49-.98 0-1.471.98-1.96l5.389-.98c.98-.489 1.47-1.47 1.47-2.449L4.622 22.066c0-.98.49-1.96 1.47-2.45h.98l2.939.49c.98 0 1.96-.49 2.45-1.47l2.45-6.859 5.879-9.799c.98-1.47 1.959-1.47 2.45.49l5.388 18.618z"></path></g><!----></svg>